<?xml version="1.0" encoding="UTF-8" standalone="no"?>
<!DOCTYPE svg PUBLIC "-//W3C//DTD SVG 1.1//EN" "http://www.w3.org/Graphics/SVG/1.1/DTD/svg11.dtd">
<svg xmlns="http://www.w3.org/2000/svg" xmlns:xlink="http://www.w3.org/1999/xlink" version="1.1" width="612pt" height="792pt" viewBox="0 0 612 792">
<g enable-background="new">
<path transform="matrix(.75,0,0,.75,0,0)" d="M 183.04 0 L 634.4 0 L 634.4 1056 L 183.04 1056 Z " fill="#ffffff"/>
<path transform="matrix(.75,0,0,.75,0,0)" d="M 336.16 99.84 L 634.4 99.84 L 634.4 951.68 L 336.16 951.68 Z " fill="#ffffff"/>
<clipPath id="cp0">
<path transform="matrix(.75,0,0,.75,0,0)" d="M 336.16 99.68 L 336.16 951.68 L 634.4 951.68 L 634.4 99.68 Z " fill-rule="evenodd"/>
</clipPath>
<g clip-path="url(#cp0)">
<path transform="matrix(.75,0,0,.75,0,0)" d="M 343.07 912.95 L 372.61 912.95 L 372.61 883.31 L 343.07 883.31 L 343.07 912.95 Z " fill="#c8d1e0"/>
</g>
<clipPath id="cp1">
<path transform="matrix(.75,0,0,.75,0,0)" d="M 336.16 868.8 L 387.2 868.8 L 387.2 927.52 L 336.16 927.52 Z " fill-rule="evenodd"/>
</clipPath>
<g clip-path="url(#cp1)">
<path transform="matrix(.75,0,0,.75,0,0)" stroke-width="2.568" stroke-linecap="butt" stroke-miterlimit="10" stroke-linejoin="miter" fill="none" stroke="#808080" d="M 343.07 912.95 L 372.61 912.95 L 372.61 883.31 L 343.07 883.31 L 343.07 912.95 Z "/>
</g>
<clipPath id="cp2">
<path transform="matrix(.75,0,0,.75,0,0)" d="M 336.16 99.68 L 336.16 951.68 L 634.4 951.68 L 634.4 99.68 Z " fill-rule="evenodd"/>
</clipPath>
<g clip-path="url(#cp2)">
<path transform="matrix(.75,0,0,.75,0,0)" d="M 343.07 877.38 L 372.61 877.38 L 372.61 847.9 L 343.07 847.9 L 343.07 877.38 Z " fill="#ffffff"/>
</g>
<clipPath id="cp3">
<path transform="matrix(.75,0,0,.75,0,0)" d="M 336.16 833.44 L 387.2 833.44 L 387.2 892 L 336.16 892 Z " fill-rule="evenodd"/>
</clipPath>
<g clip-path="url(#cp3)">
<path transform="matrix(.75,0,0,.75,0,0)" stroke-width="2.568" stroke-linecap="butt" stroke-miterlimit="10" stroke-linejoin="miter" fill="none" stroke="#808080" d="M 343.07 877.38 L 372.61 877.38 L 372.61 847.9 L 343.07 847.9 L 343.07 877.38 Z "/>
</g>
<clipPath id="cp4">
<path transform="matrix(.75,0,0,.75,0,0)" d="M 336.16 99.68 L 336.16 951.68 L 634.4 951.68 L 634.4 99.68 Z " fill-rule="evenodd"/>
</clipPath>
<g clip-path="url(#cp4)">
<path transform="matrix(.75,0,0,.75,0,0)" d="M 343.07 841.97 L 372.61 841.97 L 372.61 812.33 L 343.07 812.33 L 343.07 841.97 Z " fill="#ffffff"/>
</g>
<clipPath id="cp5">
<path transform="matrix(.75,0,0,.75,0,0)" d="M 336.16 797.92 L 387.2 797.92 L 387.2 856.64 L 336.16 856.64 Z " fill-rule="evenodd"/>
</clipPath>
<g clip-path="url(#cp5)">
<path transform="matrix(.75,0,0,.75,0,0)" stroke-width="2.568" stroke-linecap="butt" stroke-miterlimit="10" stroke-linejoin="miter" fill="none" stroke="#808080" d="M 343.07 841.97 L 372.61 841.97 L 372.61 812.33 L 343.07 812.33 L 343.07 841.97 Z "/>
</g>
<clipPath id="cp6">
<path transform="matrix(.75,0,0,.75,0,0)" d="M 336.16 99.68 L 336.16 951.68 L 634.4 951.68 L 634.4 99.68 Z " fill-rule="evenodd"/>
</clipPath>
<g clip-path="url(#cp6)">
<path transform="matrix(.75,0,0,.75,0,0)" d="M 343.07 806.4 L 372.61 806.4 L 372.61 776.92 L 343.07 776.92 L 343.07 806.4 Z " fill="#c8d1e0"/>
</g>
<clipPath id="cp7">
<path transform="matrix(.75,0,0,.75,0,0)" d="M 336.16 762.4 L 387.2 762.4 L 387.2 820.96 L 336.16 820.96 Z " fill-rule="evenodd"/>
</clipPath>
<g clip-path="url(#cp7)">
<path transform="matrix(.75,0,0,.75,0,0)" stroke-width="2.568" stroke-linecap="butt" stroke-miterlimit="10" stroke-linejoin="miter" fill="none" stroke="#808080" d="M 343.07 806.4 L 372.61 806.4 L 372.61 776.92 L 343.07 776.92 L 343.07 806.4 Z "/>
</g>
<clipPath id="cp8">
<path transform="matrix(.75,0,0,.75,0,0)" d="M 336.16 99.68 L 336.16 951.68 L 634.4 951.68 L 634.4 99.68 Z " fill-rule="evenodd"/>
</clipPath>
<g clip-path="url(#cp8)">
<path transform="matrix(.75,0,0,.75,0,0)" d="M 343.07 770.99 L 372.61 770.99 L 372.61 741.51 L 343.07 741.51 L 343.07 770.99 Z " fill="#ffffff"/>
</g>
<clipPath id="cp9">
<path transform="matrix(.75,0,0,.75,0,0)" d="M 336.16 727.04 L 387.2 727.04 L 387.2 785.6 L 336.16 785.6 Z " fill-rule="evenodd"/>
</clipPath>
<g clip-path="url(#cp9)">
<path transform="matrix(.75,0,0,.75,0,0)" stroke-width="2.568" stroke-linecap="butt" stroke-miterlimit="10" stroke-linejoin="miter" fill="none" stroke="#808080" d="M 343.07 770.99 L 372.61 770.99 L 372.61 741.51 L 343.07 741.51 L 343.07 770.99 Z "/>
</g>
<clipPath id="cp10">
<path transform="matrix(.75,0,0,.75,0,0)" d="M 336.16 99.68 L 336.16 951.68 L 634.4 951.68 L 634.4 99.68 Z " fill-rule="evenodd"/>
</clipPath>
<g clip-path="url(#cp10)">
<path transform="matrix(.75,0,0,.75,0,0)" d="M 343.07 735.59 L 372.61 735.59 L 372.61 705.94 L 343.07 705.94 L 343.07 735.59 Z " fill="#c8d1e0"/>
</g>
<clipPath id="cp11">
<path transform="matrix(.75,0,0,.75,0,0)" d="M 336.16 691.52 L 387.2 691.52 L 387.2 750.24 L 336.16 750.24 Z " fill-rule="evenodd"/>
</clipPath>
<g clip-path="url(#cp11)">
<path transform="matrix(.75,0,0,.75,0,0)" stroke-width="2.568" stroke-linecap="butt" stroke-miterlimit="10" stroke-linejoin="miter" fill="none" stroke="#808080" d="M 343.07 735.59 L 372.61 735.59 L 372.61 705.94 L 343.07 705.94 L 343.07 735.59 Z "/>
</g>
<clipPath id="cp12">
<path transform="matrix(.75,0,0,.75,0,0)" d="M 336.16 99.68 L 336.16 951.68 L 634.4 951.68 L 634.4 99.68 Z " fill-rule="evenodd"/>
</clipPath>
<g clip-path="url(#cp12)">
<path transform="matrix(.75,0,0,.75,0,0)" d="M 343.07 700.02 L 372.61 700.02 L 372.61 670.53 L 343.07 670.53 L 343.07 700.02 Z " fill="#ffffff"/>
</g>
<clipPath id="cp13">
<path transform="matrix(.75,0,0,.75,0,0)" d="M 336.16 656 L 387.2 656 L 387.2 714.72 L 336.16 714.72 Z " fill-rule="evenodd"/>
</clipPath>
<g clip-path="url(#cp13)">
<path transform="matrix(.75,0,0,.75,0,0)" stroke-width="2.568" stroke-linecap="butt" stroke-miterlimit="10" stroke-linejoin="miter" fill="none" stroke="#808080" d="M 343.07 700.02 L 372.61 700.02 L 372.61 670.53 L 343.07 670.53 L 343.07 700.02 Z "/>
</g>
<clipPath id="cp14">
<path transform="matrix(.75,0,0,.75,0,0)" d="M 336.16 99.68 L 336.16 951.68 L 634.4 951.68 L 634.4 99.68 Z " fill-rule="evenodd"/>
</clipPath>
<g clip-path="url(#cp14)">
<path transform="matrix(.75,0,0,.75,0,0)" d="M 343.07 664.61 L 372.61 664.61 L 372.61 635.13 L 343.07 635.13 L 343.07 664.61 Z " fill="#ffffff"/>
</g>
<clipPath id="cp15">
<path transform="matrix(.75,0,0,.75,0,0)" d="M 336.16 620.64 L 387.2 620.64 L 387.2 679.2 L 336.16 679.2 Z " fill-rule="evenodd"/>
</clipPath>
<g clip-path="url(#cp15)">
<path transform="matrix(.75,0,0,.75,0,0)" stroke-width="2.568" stroke-linecap="butt" stroke-miterlimit="10" stroke-linejoin="miter" fill="none" stroke="#808080" d="M 343.07 664.61 L 372.61 664.61 L 372.61 635.13 L 343.07 635.13 L 343.07 664.61 Z "/>
</g>
<clipPath id="cp16">
<path transform="matrix(.75,0,0,.75,0,0)" d="M 336.16 99.68 L 336.16 951.68 L 634.4 951.68 L 634.4 99.68 Z " fill-rule="evenodd"/>
</clipPath>
<g clip-path="url(#cp16)">
<path transform="matrix(.75,0,0,.75,0,0)" d="M 343.07 629.2 L 372.61 629.2 L 372.61 599.56 L 343.07 599.56 L 343.07 629.2 Z " fill="#58606e"/>
</g>
<clipPath id="cp17">
<path transform="matrix(.75,0,0,.75,0,0)" d="M 336.16 585.12 L 387.2 585.12 L 387.2 643.84 L 336.16 643.84 Z " fill-rule="evenodd"/>
</clipPath>
<g clip-path="url(#cp17)">
<path transform="matrix(.75,0,0,.75,0,0)" stroke-width="2.568" stroke-linecap="butt" stroke-miterlimit="10" stroke-linejoin="miter" fill="none" stroke="#808080" d="M 343.07 629.2 L 372.61 629.2 L 372.61 599.56 L 343.07 599.56 L 343.07 629.2 Z "/>
</g>
<clipPath id="cp18">
<path transform="matrix(.75,0,0,.75,0,0)" d="M 336.16 99.68 L 336.16 951.68 L 634.4 951.68 L 634.4 99.68 Z " fill-rule="evenodd"/>
</clipPath>
<g clip-path="url(#cp18)">
<path transform="matrix(.75,0,0,.75,0,0)" d="M 343.07 593.63 L 372.61 593.63 L 372.61 564.15 L 343.07 564.15 L 343.07 593.63 Z " fill="#c8d1e0"/>
</g>
<clipPath id="cp19">
<path transform="matrix(.75,0,0,.75,0,0)" d="M 336.16 549.6 L 387.2 549.6 L 387.2 608.32 L 336.16 608.32 Z " fill-rule="evenodd"/>
</clipPath>
<g clip-path="url(#cp19)">
<path transform="matrix(.75,0,0,.75,0,0)" stroke-width="2.568" stroke-linecap="butt" stroke-miterlimit="10" stroke-linejoin="miter" fill="none" stroke="#808080" d="M 343.07 593.63 L 372.61 593.63 L 372.61 564.15 L 343.07 564.15 L 343.07 593.63 Z "/>
</g>
<clipPath id="cp20">
<path transform="matrix(.75,0,0,.75,0,0)" d="M 336.16 99.68 L 336.16 951.68 L 634.4 951.68 L 634.4 99.68 Z " fill-rule="evenodd"/>
</clipPath>
<g clip-path="url(#cp20)">
<path transform="matrix(.75,0,0,.75,0,0)" d="M 343.07 558.22 L 372.61 558.22 L 372.61 528.74 L 343.07 528.74 L 343.07 558.22 Z " fill="#afbacc"/>
</g>
<clipPath id="cp21">
<path transform="matrix(.75,0,0,.75,0,0)" d="M 336.16 514.24 L 387.2 514.24 L 387.2 572.8 L 336.16 572.8 Z " fill-rule="evenodd"/>
</clipPath>
<g clip-path="url(#cp21)">
<path transform="matrix(.75,0,0,.75,0,0)" stroke-width="2.568" stroke-linecap="butt" stroke-miterlimit="10" stroke-linejoin="miter" fill="none" stroke="#808080" d="M 343.07 558.22 L 372.61 558.22 L 372.61 528.74 L 343.07 528.74 L 343.07 558.22 Z "/>
</g>
<clipPath id="cp22">
<path transform="matrix(.75,0,0,.75,0,0)" d="M 336.16 99.68 L 336.16 951.68 L 634.4 951.68 L 634.4 99.68 Z " fill-rule="evenodd"/>
</clipPath>
<g clip-path="url(#cp22)">
<path transform="matrix(.75,0,0,.75,0,0)" d="M 343.07 522.81 L 372.61 522.81 L 372.61 493.17 L 343.07 493.17 L 343.07 522.81 Z " fill="#ffffff"/>
</g>
<clipPath id="cp23">
<path transform="matrix(.75,0,0,.75,0,0)" d="M 336.16 478.72 L 387.2 478.72 L 387.2 537.44 L 336.16 537.44 Z " fill-rule="evenodd"/>
</clipPath>
<g clip-path="url(#cp23)">
<path transform="matrix(.75,0,0,.75,0,0)" stroke-width="2.568" stroke-linecap="butt" stroke-miterlimit="10" stroke-linejoin="miter" fill="none" stroke="#808080" d="M 343.07 522.81 L 372.61 522.81 L 372.61 493.17 L 343.07 493.17 L 343.07 522.81 Z "/>
</g>
<clipPath id="cp24">
<path transform="matrix(.75,0,0,.75,0,0)" d="M 336.16 99.68 L 336.16 951.68 L 634.4 951.68 L 634.4 99.68 Z " fill-rule="evenodd"/>
</clipPath>
<g clip-path="url(#cp24)">
<path transform="matrix(.75,0,0,.75,0,0)" d="M 343.07 487.24 L 372.61 487.24 L 372.61 457.76 L 343.07 457.76 L 343.07 487.24 Z " fill="#ffffff"/>
</g>
<clipPath id="cp25">
<path transform="matrix(.75,0,0,.75,0,0)" d="M 336.16 443.36 L 387.2 443.36 L 387.2 501.92 L 336.16 501.92 Z " fill-rule="evenodd"/>
</clipPath>
<g clip-path="url(#cp25)">
<path transform="matrix(.75,0,0,.75,0,0)" stroke-width="2.568" stroke-linecap="butt" stroke-miterlimit="10" stroke-linejoin="miter" fill="none" stroke="#808080" d="M 343.07 487.24 L 372.61 487.24 L 372.61 457.76 L 343.07 457.76 L 343.07 487.24 Z "/>
</g>
<clipPath id="cp26">
<path transform="matrix(.75,0,0,.75,0,0)" d="M 336.16 99.68 L 336.16 951.68 L 634.4 951.68 L 634.4 99.68 Z " fill-rule="evenodd"/>
</clipPath>
<g clip-path="url(#cp26)">
<path transform="matrix(.75,0,0,.75,0,0)" d="M 343.07 451.83 L 372.61 451.83 L 372.61 422.19 L 343.07 422.19 L 343.07 451.83 Z " fill="#ffffff"/>
</g>
<clipPath id="cp27">
<path transform="matrix(.75,0,0,.75,0,0)" d="M 336.16 407.68 L 387.2 407.68 L 387.2 466.4 L 336.16 466.4 Z " fill-rule="evenodd"/>
</clipPath>
<g clip-path="url(#cp27)">
<path transform="matrix(.75,0,0,.75,0,0)" stroke-width="2.568" stroke-linecap="butt" stroke-miterlimit="10" stroke-linejoin="miter" fill="none" stroke="#808080" d="M 343.07 451.83 L 372.61 451.83 L 372.61 422.19 L 343.07 422.19 L 343.07 451.83 Z "/>
</g>
<clipPath id="cp28">
<path transform="matrix(.75,0,0,.75,0,0)" d="M 336.16 99.68 L 336.16 951.68 L 634.4 951.68 L 634.4 99.68 Z " fill-rule="evenodd"/>
</clipPath>
<g clip-path="url(#cp28)">
<path transform="matrix(.75,0,0,.75,0,0)" d="M 343.07 416.42 L 372.61 416.42 L 372.61 386.78 L 343.07 386.78 L 343.07 416.42 Z " fill="#afbacc"/>
</g>
<clipPath id="cp29">
<path transform="matrix(.75,0,0,.75,0,0)" d="M 336.16 372.32 L 387.2 372.32 L 387.2 431.04 L 336.16 431.04 Z " fill-rule="evenodd"/>
</clipPath>
<g clip-path="url(#cp29)">
<path transform="matrix(.75,0,0,.75,0,0)" stroke-width="2.568" stroke-linecap="butt" stroke-miterlimit="10" stroke-linejoin="miter" fill="none" stroke="#808080" d="M 343.07 416.42 L 372.61 416.42 L 372.61 386.78 L 343.07 386.78 L 343.07 416.42 Z "/>
</g>
<clipPath id="cp30">
<path transform="matrix(.75,0,0,.75,0,0)" d="M 336.16 99.68 L 336.16 951.68 L 634.4 951.68 L 634.4 99.68 Z " fill-rule="evenodd"/>
</clipPath>
<g clip-path="url(#cp30)">
<path transform="matrix(.75,0,0,.75,0,0)" d="M 343.07 380.85 L 372.61 380.85 L 372.61 351.37 L 343.07 351.37 L 343.07 380.85 Z " fill="#afbacc"/>
</g>
<clipPath id="cp31">
<path transform="matrix(.75,0,0,.75,0,0)" d="M 336.16 336.96 L 387.2 336.96 L 387.2 395.52 L 336.16 395.52 Z " fill-rule="evenodd"/>
</clipPath>
<g clip-path="url(#cp31)">
<path transform="matrix(.75,0,0,.75,0,0)" stroke-width="2.568" stroke-linecap="butt" stroke-miterlimit="10" stroke-linejoin="miter" fill="none" stroke="#808080" d="M 343.07 380.85 L 372.61 380.85 L 372.61 351.37 L 343.07 351.37 L 343.07 380.85 Z "/>
</g>
<clipPath id="cp32">
<path transform="matrix(.75,0,0,.75,0,0)" d="M 336.16 99.68 L 336.16 951.68 L 634.4 951.68 L 634.4 99.68 Z " fill-rule="evenodd"/>
</clipPath>
<g clip-path="url(#cp32)">
<path transform="matrix(.75,0,0,.75,0,0)" d="M 343.07 345.44 L 372.61 345.44 L 372.61 315.8 L 343.07 315.8 L 343.07 345.44 Z " fill="#ffffff"/>
</g>
<clipPath id="cp33">
<path transform="matrix(.75,0,0,.75,0,0)" d="M 336.16 301.28 L 387.2 301.28 L 387.2 360 L 336.16 360 Z " fill-rule="evenodd"/>
</clipPath>
<g clip-path="url(#cp33)">
<path transform="matrix(.75,0,0,.75,0,0)" stroke-width="2.568" stroke-linecap="butt" stroke-miterlimit="10" stroke-linejoin="miter" fill="none" stroke="#808080" d="M 343.07 345.44 L 372.61 345.44 L 372.61 315.8 L 343.07 315.8 L 343.07 345.44 Z "/>
</g>
<clipPath id="cp34">
<path transform="matrix(.75,0,0,.75,0,0)" d="M 336.16 99.68 L 336.16 951.68 L 634.4 951.68 L 634.4 99.68 Z " fill-rule="evenodd"/>
</clipPath>
<g clip-path="url(#cp34)">
<path transform="matrix(.75,0,0,.75,0,0)" d="M 343.07 309.87 L 372.61 309.87 L 372.61 280.39 L 343.07 280.39 L 343.07 309.87 Z " fill="#afbacc"/>
</g>
<clipPath id="cp35">
<path transform="matrix(.75,0,0,.75,0,0)" d="M 336.16 265.92 L 387.2 265.92 L 387.2 324.48 L 336.16 324.48 Z " fill-rule="evenodd"/>
</clipPath>
<g clip-path="url(#cp35)">
<path transform="matrix(.75,0,0,.75,0,0)" stroke-width="2.568" stroke-linecap="butt" stroke-miterlimit="10" stroke-linejoin="miter" fill="none" stroke="#808080" d="M 343.07 309.87 L 372.61 309.87 L 372.61 280.39 L 343.07 280.39 L 343.07 309.87 Z "/>
</g>
<clipPath id="cp36">
<path transform="matrix(.75,0,0,.75,0,0)" d="M 336.16 99.68 L 336.16 951.68 L 634.4 951.68 L 634.4 99.68 Z " fill-rule="evenodd"/>
</clipPath>
<g clip-path="url(#cp36)">
<path transform="matrix(.75,0,0,.75,0,0)" d="M 343.07 274.46 L 372.61 274.46 L 372.61 244.98 L 343.07 244.98 L 343.07 274.46 Z " fill="#c8d1e0"/>
</g>
<clipPath id="cp37">
<path transform="matrix(.75,0,0,.75,0,0)" d="M 336.16 230.56 L 387.2 230.56 L 387.2 289.12 L 336.16 289.12 Z " fill-rule="evenodd"/>
</clipPath>
<g clip-path="url(#cp37)">
<path transform="matrix(.75,0,0,.75,0,0)" stroke-width="2.568" stroke-linecap="butt" stroke-miterlimit="10" stroke-linejoin="miter" fill="none" stroke="#808080" d="M 343.07 274.46 L 372.61 274.46 L 372.61 244.98 L 343.07 244.98 L 343.07 274.46 Z "/>
</g>
<clipPath id="cp38">
<path transform="matrix(.75,0,0,.75,0,0)" d="M 336.16 99.68 L 336.16 951.68 L 634.4 951.68 L 634.4 99.68 Z " fill-rule="evenodd"/>
</clipPath>
<g clip-path="url(#cp38)">
<path transform="matrix(.75,0,0,.75,0,0)" d="M 343.07 239.05 L 372.61 239.05 L 372.61 209.41 L 343.07 209.41 L 343.07 239.05 Z " fill="#afbacc"/>
</g>
<clipPath id="cp39">
<path transform="matrix(.75,0,0,.75,0,0)" d="M 336.16 194.88 L 387.2 194.88 L 387.2 253.76 L 336.16 253.76 Z " fill-rule="evenodd"/>
</clipPath>
<g clip-path="url(#cp39)">
<path transform="matrix(.75,0,0,.75,0,0)" stroke-width="2.568" stroke-linecap="butt" stroke-miterlimit="10" stroke-linejoin="miter" fill="none" stroke="#808080" d="M 343.07 239.05 L 372.61 239.05 L 372.61 209.41 L 343.07 209.41 L 343.07 239.05 Z "/>
</g>
<clipPath id="cp40">
<path transform="matrix(.75,0,0,.75,0,0)" d="M 336.16 99.68 L 336.16 951.68 L 634.4 951.68 L 634.4 99.68 Z " fill-rule="evenodd"/>
</clipPath>
<g clip-path="url(#cp40)">
<path transform="matrix(.75,0,0,.75,0,0)" d="M 343.07 203.48 L 372.61 203.48 L 372.61 174 L 343.07 174 L 343.07 203.48 Z " fill="#c8d1e0"/>
</g>
<clipPath id="cp41">
<path transform="matrix(.75,0,0,.75,0,0)" d="M 336.16 159.52 L 387.2 159.52 L 387.2 218.08 L 336.16 218.08 Z " fill-rule="evenodd"/>
</clipPath>
<g clip-path="url(#cp41)">
<path transform="matrix(.75,0,0,.75,0,0)" stroke-width="2.568" stroke-linecap="butt" stroke-miterlimit="10" stroke-linejoin="miter" fill="none" stroke="#808080" d="M 343.07 203.48 L 372.61 203.48 L 372.61 174 L 343.07 174 L 343.07 203.48 Z "/>
</g>
<clipPath id="cp42">
<path transform="matrix(.75,0,0,.75,0,0)" d="M 336.16 99.68 L 336.16 951.68 L 634.4 951.68 L 634.4 99.68 Z " fill-rule="evenodd"/>
</clipPath>
<g clip-path="url(#cp42)">
<path transform="matrix(.75,0,0,.75,0,0)" d="M 343.07 168.07 L 372.61 168.07 L 372.61 138.59 L 343.07 138.59 L 343.07 168.07 Z " fill="#afbacc"/>
</g>
<clipPath id="cp43">
<path transform="matrix(.75,0,0,.75,0,0)" d="M 336.16 124.16 L 387.2 124.16 L 387.2 182.72 L 336.16 182.72 Z " fill-rule="evenodd"/>
</clipPath>
<g clip-path="url(#cp43)">
<path transform="matrix(.75,0,0,.75,0,0)" stroke-width="2.568" stroke-linecap="butt" stroke-miterlimit="10" stroke-linejoin="miter" fill="none" stroke="#808080" d="M 343.07 168.07 L 372.61 168.07 L 372.61 138.59 L 343.07 138.59 L 343.07 168.07 Z "/>
</g>
<clipPath id="cp44">
<path transform="matrix(.75,0,0,.75,0,0)" d="M 336.16 99.68 L 336.16 951.68 L 634.4 951.68 L 634.4 99.68 Z " fill-rule="evenodd"/>
</clipPath>
<g clip-path="url(#cp44)">
<path transform="matrix(.75,0,0,.75,0,0)" d="M 378.54 912.95 L 408.08 912.95 L 408.08 883.31 L 378.54 883.31 L 378.54 912.95 Z " fill="#afbacc"/>
<path transform="matrix(.75,0,0,.75,0,0)" stroke-width="2.568" stroke-linecap="butt" stroke-miterlimit="10" stroke-linejoin="miter" fill="none" stroke="#808080" d="M 378.54 912.95 L 408.08 912.95 L 408.08 883.31 L 378.54 883.31 L 378.54 912.95 Z "/>
<path transform="matrix(.75,0,0,.75,0,0)" d="M 378.54 877.38 L 408.08 877.38 L 408.08 847.9 L 378.54 847.9 L 378.54 877.38 Z " fill="#ffffff"/>
<path transform="matrix(.75,0,0,.75,0,0)" stroke-width="2.568" stroke-linecap="butt" stroke-miterlimit="10" stroke-linejoin="miter" fill="none" stroke="#808080" d="M 378.54 877.38 L 408.08 877.38 L 408.08 847.9 L 378.54 847.9 L 378.54 877.38 Z "/>
<path transform="matrix(.75,0,0,.75,0,0)" d="M 378.54 841.97 L 408.08 841.97 L 408.08 812.33 L 378.54 812.33 L 378.54 841.97 Z " fill="#ffffff"/>
<path transform="matrix(.75,0,0,.75,0,0)" stroke-width="2.568" stroke-linecap="butt" stroke-miterlimit="10" stroke-linejoin="miter" fill="none" stroke="#808080" d="M 378.54 841.97 L 408.08 841.97 L 408.08 812.33 L 378.54 812.33 L 378.54 841.97 Z "/>
<path transform="matrix(.75,0,0,.75,0,0)" d="M 378.54 806.4 L 408.08 806.4 L 408.08 776.92 L 378.54 776.92 L 378.54 806.4 Z " fill="#8e99ab"/>
<path transform="matrix(.75,0,0,.75,0,0)" stroke-width="2.568" stroke-linecap="butt" stroke-miterlimit="10" stroke-linejoin="miter" fill="none" stroke="#808080" d="M 378.54 806.4 L 408.08 806.4 L 408.08 776.92 L 378.54 776.92 L 378.54 806.4 Z "/>
<path transform="matrix(.75,0,0,.75,0,0)" d="M 378.54 770.99 L 408.08 770.99 L 408.08 741.51 L 378.54 741.51 L 378.54 770.99 Z " fill="#ffffff"/>
<path transform="matrix(.75,0,0,.75,0,0)" stroke-width="2.568" stroke-linecap="butt" stroke-miterlimit="10" stroke-linejoin="miter" fill="none" stroke="#808080" d="M 378.54 770.99 L 408.08 770.99 L 408.08 741.51 L 378.54 741.51 L 378.54 770.99 Z "/>
<path transform="matrix(.75,0,0,.75,0,0)" d="M 378.54 735.59 L 408.08 735.59 L 408.08 705.94 L 378.54 705.94 L 378.54 735.59 Z " fill="#afbacc"/>
<path transform="matrix(.75,0,0,.75,0,0)" stroke-width="2.568" stroke-linecap="butt" stroke-miterlimit="10" stroke-linejoin="miter" fill="none" stroke="#808080" d="M 378.54 735.59 L 408.08 735.59 L 408.08 705.94 L 378.54 705.94 L 378.54 735.59 Z "/>
<path transform="matrix(.75,0,0,.75,0,0)" d="M 378.54 700.02 L 408.08 700.02 L 408.08 670.53 L 378.54 670.53 L 378.54 700.02 Z " fill="#ffffff"/>
<path transform="matrix(.75,0,0,.75,0,0)" stroke-width="2.568" stroke-linecap="butt" stroke-miterlimit="10" stroke-linejoin="miter" fill="none" stroke="#808080" d="M 378.54 700.02 L 408.08 700.02 L 408.08 670.53 L 378.54 670.53 L 378.54 700.02 Z "/>
<path transform="matrix(.75,0,0,.75,0,0)" d="M 378.54 664.61 L 408.08 664.61 L 408.08 635.13 L 378.54 635.13 L 378.54 664.61 Z " fill="#ffffff"/>
<path transform="matrix(.75,0,0,.75,0,0)" stroke-width="2.568" stroke-linecap="butt" stroke-miterlimit="10" stroke-linejoin="miter" fill="none" stroke="#808080" d="M 378.54 664.61 L 408.08 664.61 L 408.08 635.13 L 378.54 635.13 L 378.54 664.61 Z "/>
<path transform="matrix(.75,0,0,.75,0,0)" d="M 378.54 629.2 L 408.08 629.2 L 408.08 599.56 L 378.54 599.56 L 378.54 629.2 Z " fill="#333840"/>
<path transform="matrix(.75,0,0,.75,0,0)" stroke-width="2.568" stroke-linecap="butt" stroke-miterlimit="10" stroke-linejoin="miter" fill="none" stroke="#808080" d="M 378.54 629.2 L 408.08 629.2 L 408.08 599.56 L 378.54 599.56 L 378.54 629.2 Z "/>
<path transform="matrix(.75,0,0,.75,0,0)" d="M 378.54 593.63 L 408.08 593.63 L 408.08 564.15 L 378.54 564.15 L 378.54 593.63 Z " fill="#8e99ab"/>
<path transform="matrix(.75,0,0,.75,0,0)" stroke-width="2.568" stroke-linecap="butt" stroke-miterlimit="10" stroke-linejoin="miter" fill="none" stroke="#808080" d="M 378.54 593.63 L 408.08 593.63 L 408.08 564.15 L 378.54 564.15 L 378.54 593.63 Z "/>
<path transform="matrix(.75,0,0,.75,0,0)" d="M 378.54 558.22 L 408.08 558.22 L 408.08 528.74 L 378.54 528.74 L 378.54 558.22 Z " fill="#707a8a"/>
<path transform="matrix(.75,0,0,.75,0,0)" stroke-width="2.568" stroke-linecap="butt" stroke-miterlimit="10" stroke-linejoin="miter" fill="none" stroke="#808080" d="M 378.54 558.22 L 408.08 558.22 L 408.08 528.74 L 378.54 528.74 L 378.54 558.22 Z "/>
<path transform="matrix(.75,0,0,.75,0,0)" d="M 378.54 522.81 L 408.08 522.81 L 408.08 493.17 L 378.54 493.17 L 378.54 522.81 Z " fill="#ffffff"/>
<path transform="matrix(.75,0,0,.75,0,0)" stroke-width="2.568" stroke-linecap="butt" stroke-miterlimit="10" stroke-linejoin="miter" fill="none" stroke="#808080" d="M 378.54 522.81 L 408.08 522.81 L 408.08 493.17 L 378.54 493.17 L 378.54 522.81 Z "/>
<path transform="matrix(.75,0,0,.75,0,0)" d="M 378.54 487.24 L 408.08 487.24 L 408.08 457.76 L 378.54 457.76 L 378.54 487.24 Z " fill="#ffffff"/>
<path transform="matrix(.75,0,0,.75,0,0)" stroke-width="2.568" stroke-linecap="butt" stroke-miterlimit="10" stroke-linejoin="miter" fill="none" stroke="#808080" d="M 378.54 487.24 L 408.08 487.24 L 408.08 457.76 L 378.54 457.76 L 378.54 487.24 Z "/>
<path transform="matrix(.75,0,0,.75,0,0)" d="M 378.54 451.83 L 408.08 451.83 L 408.08 422.19 L 378.54 422.19 L 378.54 451.83 Z " fill="#ffffff"/>
<path transform="matrix(.75,0,0,.75,0,0)" stroke-width="2.568" stroke-linecap="butt" stroke-miterlimit="10" stroke-linejoin="miter" fill="none" stroke="#808080" d="M 378.54 451.83 L 408.08 451.83 L 408.08 422.19 L 378.54 422.19 L 378.54 451.83 Z "/>
<path transform="matrix(.75,0,0,.75,0,0)" d="M 378.54 416.42 L 408.08 416.42 L 408.08 386.78 L 378.54 386.78 L 378.54 416.42 Z " fill="#707a8a"/>
<path transform="matrix(.75,0,0,.75,0,0)" stroke-width="2.568" stroke-linecap="butt" stroke-miterlimit="10" stroke-linejoin="miter" fill="none" stroke="#808080" d="M 378.54 416.42 L 408.08 416.42 L 408.08 386.78 L 378.54 386.78 L 378.54 416.42 Z "/>
<path transform="matrix(.75,0,0,.75,0,0)" d="M 378.54 380.85 L 408.08 380.85 L 408.08 351.37 L 378.54 351.37 L 378.54 380.85 Z " fill="#707a8a"/>
<path transform="matrix(.75,0,0,.75,0,0)" stroke-width="2.568" stroke-linecap="butt" stroke-miterlimit="10" stroke-linejoin="miter" fill="none" stroke="#808080" d="M 378.54 380.85 L 408.08 380.85 L 408.08 351.37 L 378.54 351.37 L 378.54 380.85 Z "/>
<path transform="matrix(.75,0,0,.75,0,0)" d="M 378.54 345.44 L 408.08 345.44 L 408.08 315.8 L 378.54 315.8 L 378.54 345.44 Z " fill="#ffffff"/>
<path transform="matrix(.75,0,0,.75,0,0)" stroke-width="2.568" stroke-linecap="butt" stroke-miterlimit="10" stroke-linejoin="miter" fill="none" stroke="#808080" d="M 378.54 345.44 L 408.08 345.44 L 408.08 315.8 L 378.54 315.8 L 378.54 345.44 Z "/>
<path transform="matrix(.75,0,0,.75,0,0)" d="M 378.54 309.87 L 408.08 309.87 L 408.08 280.39 L 378.54 280.39 L 378.54 309.87 Z " fill="#8e99ab"/>
<path transform="matrix(.75,0,0,.75,0,0)" stroke-width="2.568" stroke-linecap="butt" stroke-miterlimit="10" stroke-linejoin="miter" fill="none" stroke="#808080" d="M 378.54 309.87 L 408.08 309.87 L 408.08 280.39 L 378.54 280.39 L 378.54 309.87 Z "/>
<path transform="matrix(.75,0,0,.75,0,0)" d="M 378.54 274.46 L 408.08 274.46 L 408.08 244.98 L 378.54 244.98 L 378.54 274.46 Z " fill="#8e99ab"/>
<path transform="matrix(.75,0,0,.75,0,0)" stroke-width="2.568" stroke-linecap="butt" stroke-miterlimit="10" stroke-linejoin="miter" fill="none" stroke="#808080" d="M 378.54 274.46 L 408.08 274.46 L 408.08 244.98 L 378.54 244.98 L 378.54 274.46 Z "/>
<path transform="matrix(.75,0,0,.75,0,0)" d="M 378.54 239.05 L 408.08 239.05 L 408.08 209.41 L 378.54 209.41 L 378.54 239.05 Z " fill="#8e99ab"/>
<path transform="matrix(.75,0,0,.75,0,0)" stroke-width="2.568" stroke-linecap="butt" stroke-miterlimit="10" stroke-linejoin="miter" fill="none" stroke="#808080" d="M 378.54 239.05 L 408.08 239.05 L 408.08 209.41 L 378.54 209.41 L 378.54 239.05 Z "/>
<path transform="matrix(.75,0,0,.75,0,0)" d="M 378.54 203.48 L 408.08 203.48 L 408.08 174 L 378.54 174 L 378.54 203.48 Z " fill="#ffffff"/>
<path transform="matrix(.75,0,0,.75,0,0)" stroke-width="2.568" stroke-linecap="butt" stroke-miterlimit="10" stroke-linejoin="miter" fill="none" stroke="#808080" d="M 378.54 203.48 L 408.08 203.48 L 408.08 174 L 378.54 174 L 378.54 203.48 Z "/>
<path transform="matrix(.75,0,0,.75,0,0)" d="M 378.54 168.07 L 408.08 168.07 L 408.08 138.59 L 378.54 138.59 L 378.54 168.07 Z " fill="#707a8a"/>
<path transform="matrix(.75,0,0,.75,0,0)" stroke-width="2.568" stroke-linecap="butt" stroke-miterlimit="10" stroke-linejoin="miter" fill="none" stroke="#808080" d="M 378.54 168.07 L 408.08 168.07 L 408.08 138.59 L 378.54 138.59 L 378.54 168.07 Z "/>
<path transform="matrix(.75,0,0,.75,0,0)" d="M 414.02 912.95 L 443.71 912.95 L 443.71 883.31 L 414.02 883.31 L 414.02 912.95 Z " fill="#afbacc"/>
<path transform="matrix(.75,0,0,.75,0,0)" stroke-width="2.568" stroke-linecap="butt" stroke-miterlimit="10" stroke-linejoin="miter" fill="none" stroke="#808080" d="M 414.02 912.95 L 443.71 912.95 L 443.71 883.31 L 414.02 883.31 L 414.02 912.95 Z "/>
<path transform="matrix(.75,0,0,.75,0,0)" d="M 414.02 877.38 L 443.71 877.38 L 443.71 847.9 L 414.02 847.9 L 414.02 877.38 Z " fill="#ffffff"/>
<path transform="matrix(.75,0,0,.75,0,0)" stroke-width="2.568" stroke-linecap="butt" stroke-miterlimit="10" stroke-linejoin="miter" fill="none" stroke="#808080" d="M 414.02 877.38 L 443.71 877.38 L 443.71 847.9 L 414.02 847.9 L 414.02 877.38 Z "/>
<path transform="matrix(.75,0,0,.75,0,0)" d="M 414.02 841.97 L 443.71 841.97 L 443.71 812.33 L 414.02 812.33 L 414.02 841.97 Z " fill="#ffffff"/>
<path transform="matrix(.75,0,0,.75,0,0)" stroke-width="2.568" stroke-linecap="butt" stroke-miterlimit="10" stroke-linejoin="miter" fill="none" stroke="#808080" d="M 414.02 841.97 L 443.71 841.97 L 443.71 812.33 L 414.02 812.33 L 414.02 841.97 Z "/>
<path transform="matrix(.75,0,0,.75,0,0)" d="M 414.02 806.4 L 443.71 806.4 L 443.71 776.92 L 414.02 776.92 L 414.02 806.4 Z " fill="#afbacc"/>
<path transform="matrix(.75,0,0,.75,0,0)" stroke-width="2.568" stroke-linecap="butt" stroke-miterlimit="10" stroke-linejoin="miter" fill="none" stroke="#808080" d="M 414.02 806.4 L 443.71 806.4 L 443.71 776.92 L 414.02 776.92 L 414.02 806.4 Z "/>
<path transform="matrix(.75,0,0,.75,0,0)" d="M 414.02 770.99 L 443.71 770.99 L 443.71 741.51 L 414.02 741.51 L 414.02 770.99 Z " fill="#8e99ab"/>
<path transform="matrix(.75,0,0,.75,0,0)" stroke-width="2.568" stroke-linecap="butt" stroke-miterlimit="10" stroke-linejoin="miter" fill="none" stroke="#808080" d="M 414.02 770.99 L 443.71 770.99 L 443.71 741.51 L 414.02 741.51 L 414.02 770.99 Z "/>
<path transform="matrix(.75,0,0,.75,0,0)" d="M 414.02 735.59 L 443.71 735.59 L 443.71 705.94 L 414.02 705.94 L 414.02 735.59 Z " fill="#afbacc"/>
<path transform="matrix(.75,0,0,.75,0,0)" stroke-width="2.568" stroke-linecap="butt" stroke-miterlimit="10" stroke-linejoin="miter" fill="none" stroke="#808080" d="M 414.02 735.59 L 443.71 735.59 L 443.71 705.94 L 414.02 705.94 L 414.02 735.59 Z "/>
<path transform="matrix(.75,0,0,.75,0,0)" d="M 414.02 700.02 L 443.71 700.02 L 443.71 670.53 L 414.02 670.53 L 414.02 700.02 Z " fill="#ffffff"/>
<path transform="matrix(.75,0,0,.75,0,0)" stroke-width="2.568" stroke-linecap="butt" stroke-miterlimit="10" stroke-linejoin="miter" fill="none" stroke="#808080" d="M 414.02 700.02 L 443.71 700.02 L 443.71 670.53 L 414.02 670.53 L 414.02 700.02 Z "/>
<path transform="matrix(.75,0,0,.75,0,0)" d="M 414.02 664.61 L 443.71 664.61 L 443.71 635.13 L 414.02 635.13 L 414.02 664.61 Z " fill="#ffffff"/>
<path transform="matrix(.75,0,0,.75,0,0)" stroke-width="2.568" stroke-linecap="butt" stroke-miterlimit="10" stroke-linejoin="miter" fill="none" stroke="#808080" d="M 414.02 664.61 L 443.71 664.61 L 443.71 635.13 L 414.02 635.13 L 414.02 664.61 Z "/>
<path transform="matrix(.75,0,0,.75,0,0)" d="M 414.02 629.2 L 443.71 629.2 L 443.71 599.56 L 414.02 599.56 L 414.02 629.2 Z " fill="#8e99ab"/>
<path transform="matrix(.75,0,0,.75,0,0)" stroke-width="2.568" stroke-linecap="butt" stroke-miterlimit="10" stroke-linejoin="miter" fill="none" stroke="#808080" d="M 414.02 629.2 L 443.71 629.2 L 443.71 599.56 L 414.02 599.56 L 414.02 629.2 Z "/>
<path transform="matrix(.75,0,0,.75,0,0)" d="M 414.02 593.63 L 443.71 593.63 L 443.71 564.15 L 414.02 564.15 L 414.02 593.63 Z " fill="#afbacc"/>
<path transform="matrix(.75,0,0,.75,0,0)" stroke-width="2.568" stroke-linecap="butt" stroke-miterlimit="10" stroke-linejoin="miter" fill="none" stroke="#808080" d="M 414.02 593.63 L 443.71 593.63 L 443.71 564.15 L 414.02 564.15 L 414.02 593.63 Z "/>
<path transform="matrix(.75,0,0,.75,0,0)" d="M 414.02 558.22 L 443.71 558.22 L 443.71 528.74 L 414.02 528.74 L 414.02 558.22 Z " fill="#afbacc"/>
<path transform="matrix(.75,0,0,.75,0,0)" stroke-width="2.568" stroke-linecap="butt" stroke-miterlimit="10" stroke-linejoin="miter" fill="none" stroke="#808080" d="M 414.02 558.22 L 443.71 558.22 L 443.71 528.74 L 414.02 528.74 L 414.02 558.22 Z "/>
<path transform="matrix(.75,0,0,.75,0,0)" d="M 414.02 522.81 L 443.71 522.81 L 443.71 493.17 L 414.02 493.17 L 414.02 522.81 Z " fill="#ffffff"/>
<path transform="matrix(.75,0,0,.75,0,0)" stroke-width="2.568" stroke-linecap="butt" stroke-miterlimit="10" stroke-linejoin="miter" fill="none" stroke="#808080" d="M 414.02 522.81 L 443.71 522.81 L 443.71 493.17 L 414.02 493.17 L 414.02 522.81 Z "/>
<path transform="matrix(.75,0,0,.75,0,0)" d="M 414.02 487.24 L 443.71 487.24 L 443.71 457.76 L 414.02 457.76 L 414.02 487.24 Z " fill="#ffffff"/>
<path transform="matrix(.75,0,0,.75,0,0)" stroke-width="2.568" stroke-linecap="butt" stroke-miterlimit="10" stroke-linejoin="miter" fill="none" stroke="#808080" d="M 414.02 487.24 L 443.71 487.24 L 443.71 457.76 L 414.02 457.76 L 414.02 487.24 Z "/>
<path transform="matrix(.75,0,0,.75,0,0)" d="M 414.02 451.83 L 443.71 451.83 L 443.71 422.19 L 414.02 422.19 L 414.02 451.83 Z " fill="#8e99ab"/>
<path transform="matrix(.75,0,0,.75,0,0)" stroke-width="2.568" stroke-linecap="butt" stroke-miterlimit="10" stroke-linejoin="miter" fill="none" stroke="#808080" d="M 414.02 451.83 L 443.71 451.83 L 443.71 422.19 L 414.02 422.19 L 414.02 451.83 Z "/>
<path transform="matrix(.75,0,0,.75,0,0)" d="M 414.02 416.42 L 443.71 416.42 L 443.71 386.78 L 414.02 386.78 L 414.02 416.42 Z " fill="#707a8a"/>
<path transform="matrix(.75,0,0,.75,0,0)" stroke-width="2.568" stroke-linecap="butt" stroke-miterlimit="10" stroke-linejoin="miter" fill="none" stroke="#808080" d="M 414.02 416.42 L 443.71 416.42 L 443.71 386.78 L 414.02 386.78 L 414.02 416.42 Z "/>
<path transform="matrix(.75,0,0,.75,0,0)" d="M 414.02 380.85 L 443.71 380.85 L 443.71 351.37 L 414.02 351.37 L 414.02 380.85 Z " fill="#8e99ab"/>
<path transform="matrix(.75,0,0,.75,0,0)" stroke-width="2.568" stroke-linecap="butt" stroke-miterlimit="10" stroke-linejoin="miter" fill="none" stroke="#808080" d="M 414.02 380.85 L 443.71 380.85 L 443.71 351.37 L 414.02 351.37 L 414.02 380.85 Z "/>
<path transform="matrix(.75,0,0,.75,0,0)" d="M 414.02 345.44 L 443.71 345.44 L 443.71 315.8 L 414.02 315.8 L 414.02 345.44 Z " fill="#8e99ab"/>
<path transform="matrix(.75,0,0,.75,0,0)" stroke-width="2.568" stroke-linecap="butt" stroke-miterlimit="10" stroke-linejoin="miter" fill="none" stroke="#808080" d="M 414.02 345.44 L 443.71 345.44 L 443.71 315.8 L 414.02 315.8 L 414.02 345.44 Z "/>
<path transform="matrix(.75,0,0,.75,0,0)" d="M 414.02 309.87 L 443.71 309.87 L 443.71 280.39 L 414.02 280.39 L 414.02 309.87 Z " fill="#8e99ab"/>
<path transform="matrix(.75,0,0,.75,0,0)" stroke-width="2.568" stroke-linecap="butt" stroke-miterlimit="10" stroke-linejoin="miter" fill="none" stroke="#808080" d="M 414.02 309.87 L 443.71 309.87 L 443.71 280.39 L 414.02 280.39 L 414.02 309.87 Z "/>
<path transform="matrix(.75,0,0,.75,0,0)" d="M 414.02 274.46 L 443.71 274.46 L 443.71 244.98 L 414.02 244.98 L 414.02 274.46 Z " fill="#707a8a"/>
<path transform="matrix(.75,0,0,.75,0,0)" stroke-width="2.568" stroke-linecap="butt" stroke-miterlimit="10" stroke-linejoin="miter" fill="none" stroke="#808080" d="M 414.02 274.46 L 443.71 274.46 L 443.71 244.98 L 414.02 244.98 L 414.02 274.46 Z "/>
<path transform="matrix(.75,0,0,.75,0,0)" d="M 414.02 239.05 L 443.71 239.05 L 443.71 209.41 L 414.02 209.41 L 414.02 239.05 Z " fill="#707a8a"/>
<path transform="matrix(.75,0,0,.75,0,0)" stroke-width="2.568" stroke-linecap="butt" stroke-miterlimit="10" stroke-linejoin="miter" fill="none" stroke="#808080" d="M 414.02 239.05 L 443.71 239.05 L 443.71 209.41 L 414.02 209.41 L 414.02 239.05 Z "/>
<path transform="matrix(.75,0,0,.75,0,0)" d="M 414.02 203.48 L 443.71 203.48 L 443.71 174 L 414.02 174 L 414.02 203.48 Z " fill="#58606e"/>
<path transform="matrix(.75,0,0,.75,0,0)" stroke-width="2.568" stroke-linecap="butt" stroke-miterlimit="10" stroke-linejoin="miter" fill="none" stroke="#808080" d="M 414.02 203.48 L 443.71 203.48 L 443.71 174 L 414.02 174 L 414.02 203.48 Z "/>
<path transform="matrix(.75,0,0,.75,0,0)" d="M 414.02 168.07 L 443.71 168.07 L 443.71 138.59 L 414.02 138.59 L 414.02 168.07 Z " fill="#8e99ab"/>
<path transform="matrix(.75,0,0,.75,0,0)" stroke-width="2.568" stroke-linecap="butt" stroke-miterlimit="10" stroke-linejoin="miter" fill="none" stroke="#808080" d="M 414.02 168.07 L 443.71 168.07 L 443.71 138.59 L 414.02 138.59 L 414.02 168.07 Z "/>
<path transform="matrix(.75,0,0,.75,0,0)" d="M 449.65 912.95 L 479.18 912.95 L 479.18 883.31 L 449.65 883.31 L 449.65 912.95 Z " fill="#707a8a"/>
<path transform="matrix(.75,0,0,.75,0,0)" stroke-width="2.568" stroke-linecap="butt" stroke-miterlimit="10" stroke-linejoin="miter" fill="none" stroke="#808080" d="M 449.65 912.95 L 479.18 912.95 L 479.18 883.31 L 449.65 883.31 L 449.65 912.95 Z "/>
<path transform="matrix(.75,0,0,.75,0,0)" d="M 449.65 877.38 L 479.18 877.38 L 479.18 847.9 L 449.65 847.9 L 449.65 877.38 Z " fill="#ffffff"/>
<path transform="matrix(.75,0,0,.75,0,0)" stroke-width="2.568" stroke-linecap="butt" stroke-miterlimit="10" stroke-linejoin="miter" fill="none" stroke="#808080" d="M 449.65 877.38 L 479.18 877.38 L 479.18 847.9 L 449.65 847.9 L 449.65 877.38 Z "/>
<path transform="matrix(.75,0,0,.75,0,0)" d="M 449.65 841.97 L 479.18 841.97 L 479.18 812.33 L 449.65 812.33 L 449.65 841.97 Z " fill="#ffffff"/>
<path transform="matrix(.75,0,0,.75,0,0)" stroke-width="2.568" stroke-linecap="butt" stroke-miterlimit="10" stroke-linejoin="miter" fill="none" stroke="#808080" d="M 449.65 841.97 L 479.18 841.97 L 479.18 812.33 L 449.65 812.33 L 449.65 841.97 Z "/>
<path transform="matrix(.75,0,0,.75,0,0)" d="M 449.65 806.4 L 479.18 806.4 L 479.18 776.92 L 449.65 776.92 L 449.65 806.4 Z " fill="#58606e"/>
<path transform="matrix(.75,0,0,.75,0,0)" stroke-width="2.568" stroke-linecap="butt" stroke-miterlimit="10" stroke-linejoin="miter" fill="none" stroke="#808080" d="M 449.65 806.4 L 479.18 806.4 L 479.18 776.92 L 449.65 776.92 L 449.65 806.4 Z "/>
<path transform="matrix(.75,0,0,.75,0,0)" d="M 449.65 770.99 L 479.18 770.99 L 479.18 741.51 L 449.65 741.51 L 449.65 770.99 Z " fill="#434a54"/>
<path transform="matrix(.75,0,0,.75,0,0)" stroke-width="2.568" stroke-linecap="butt" stroke-miterlimit="10" stroke-linejoin="miter" fill="none" stroke="#808080" d="M 449.65 770.99 L 479.18 770.99 L 479.18 741.51 L 449.65 741.51 L 449.65 770.99 Z "/>
<path transform="matrix(.75,0,0,.75,0,0)" d="M 449.65 735.59 L 479.18 735.59 L 479.18 705.94 L 449.65 705.94 L 449.65 735.59 Z " fill="#707a8a"/>
<path transform="matrix(.75,0,0,.75,0,0)" stroke-width="2.568" stroke-linecap="butt" stroke-miterlimit="10" stroke-linejoin="miter" fill="none" stroke="#808080" d="M 449.65 735.59 L 479.18 735.59 L 479.18 705.94 L 449.65 705.94 L 449.65 735.59 Z "/>
<path transform="matrix(.75,0,0,.75,0,0)" d="M 449.65 700.02 L 479.18 700.02 L 479.18 670.53 L 449.65 670.53 L 449.65 700.02 Z " fill="#ffffff"/>
<path transform="matrix(.75,0,0,.75,0,0)" stroke-width="2.568" stroke-linecap="butt" stroke-miterlimit="10" stroke-linejoin="miter" fill="none" stroke="#808080" d="M 449.65 700.02 L 479.18 700.02 L 479.18 670.53 L 449.65 670.53 L 449.65 700.02 Z "/>
<path transform="matrix(.75,0,0,.75,0,0)" d="M 449.65 664.61 L 479.18 664.61 L 479.18 635.13 L 449.65 635.13 L 449.65 664.61 Z " fill="#ffffff"/>
<path transform="matrix(.75,0,0,.75,0,0)" stroke-width="2.568" stroke-linecap="butt" stroke-miterlimit="10" stroke-linejoin="miter" fill="none" stroke="#808080" d="M 449.65 664.61 L 479.18 664.61 L 479.18 635.13 L 449.65 635.13 L 449.65 664.61 Z "/>
<path transform="matrix(.75,0,0,.75,0,0)" d="M 449.65 629.2 L 479.18 629.2 L 479.18 599.56 L 449.65 599.56 L 449.65 629.2 Z " fill="#434a54"/>
<path transform="matrix(.75,0,0,.75,0,0)" stroke-width="2.568" stroke-linecap="butt" stroke-miterlimit="10" stroke-linejoin="miter" fill="none" stroke="#808080" d="M 449.65 629.2 L 479.18 629.2 L 479.18 599.56 L 449.65 599.56 L 449.65 629.2 Z "/>
<path transform="matrix(.75,0,0,.75,0,0)" d="M 449.65 593.63 L 479.18 593.63 L 479.18 564.15 L 449.65 564.15 L 449.65 593.63 Z " fill="#707a8a"/>
<path transform="matrix(.75,0,0,.75,0,0)" stroke-width="2.568" stroke-linecap="butt" stroke-miterlimit="10" stroke-linejoin="miter" fill="none" stroke="#808080" d="M 449.65 593.63 L 479.18 593.63 L 479.18 564.15 L 449.65 564.15 L 449.65 593.63 Z "/>
<path transform="matrix(.75,0,0,.75,0,0)" d="M 449.65 558.22 L 479.18 558.22 L 479.18 528.74 L 449.65 528.74 L 449.65 558.22 Z " fill="#707a8a"/>
<path transform="matrix(.75,0,0,.75,0,0)" stroke-width="2.568" stroke-linecap="butt" stroke-miterlimit="10" stroke-linejoin="miter" fill="none" stroke="#808080" d="M 449.65 558.22 L 479.18 558.22 L 479.18 528.74 L 449.65 528.74 L 449.65 558.22 Z "/>
<path transform="matrix(.75,0,0,.75,0,0)" d="M 449.65 522.81 L 479.18 522.81 L 479.18 493.17 L 449.65 493.17 L 449.65 522.81 Z " fill="#ffffff"/>
<path transform="matrix(.75,0,0,.75,0,0)" stroke-width="2.568" stroke-linecap="butt" stroke-miterlimit="10" stroke-linejoin="miter" fill="none" stroke="#808080" d="M 449.65 522.81 L 479.18 522.81 L 479.18 493.17 L 449.65 493.17 L 449.65 522.81 Z "/>
<path transform="matrix(.75,0,0,.75,0,0)" d="M 449.65 487.24 L 479.18 487.24 L 479.18 457.76 L 449.65 457.76 L 449.65 487.24 Z " fill="#ffffff"/>
<path transform="matrix(.75,0,0,.75,0,0)" stroke-width="2.568" stroke-linecap="butt" stroke-miterlimit="10" stroke-linejoin="miter" fill="none" stroke="#808080" d="M 449.65 487.24 L 479.18 487.24 L 479.18 457.76 L 449.65 457.76 L 449.65 487.24 Z "/>
<path transform="matrix(.75,0,0,.75,0,0)" d="M 449.65 451.83 L 479.18 451.83 L 479.18 422.19 L 449.65 422.19 L 449.65 451.83 Z " fill="#58606e"/>
<path transform="matrix(.75,0,0,.75,0,0)" stroke-width="2.568" stroke-linecap="butt" stroke-miterlimit="10" stroke-linejoin="miter" fill="none" stroke="#808080" d="M 449.65 451.83 L 479.18 451.83 L 479.18 422.19 L 449.65 422.19 L 449.65 451.83 Z "/>
<path transform="matrix(.75,0,0,.75,0,0)" d="M 449.65 416.42 L 479.18 416.42 L 479.18 386.78 L 449.65 386.78 L 449.65 416.42 Z " fill="#333840"/>
<path transform="matrix(.75,0,0,.75,0,0)" stroke-width="2.568" stroke-linecap="butt" stroke-miterlimit="10" stroke-linejoin="miter" fill="none" stroke="#808080" d="M 449.65 416.42 L 479.18 416.42 L 479.18 386.78 L 449.65 386.78 L 449.65 416.42 Z "/>
<path transform="matrix(.75,0,0,.75,0,0)" d="M 449.65 380.85 L 479.18 380.85 L 479.18 351.37 L 449.65 351.37 L 449.65 380.85 Z " fill="#434a54"/>
<path transform="matrix(.75,0,0,.75,0,0)" stroke-width="2.568" stroke-linecap="butt" stroke-miterlimit="10" stroke-linejoin="miter" fill="none" stroke="#808080" d="M 449.65 380.85 L 479.18 380.85 L 479.18 351.37 L 449.65 351.37 L 449.65 380.85 Z "/>
<path transform="matrix(.75,0,0,.75,0,0)" d="M 449.65 345.44 L 479.18 345.44 L 479.18 315.8 L 449.65 315.8 L 449.65 345.44 Z " fill="#434a54"/>
<path transform="matrix(.75,0,0,.75,0,0)" stroke-width="2.568" stroke-linecap="butt" stroke-miterlimit="10" stroke-linejoin="miter" fill="none" stroke="#808080" d="M 449.65 345.44 L 479.18 345.44 L 479.18 315.8 L 449.65 315.8 L 449.65 345.44 Z "/>
<path transform="matrix(.75,0,0,.75,0,0)" d="M 449.65 309.87 L 479.18 309.87 L 479.18 280.39 L 449.65 280.39 L 449.65 309.87 Z " fill="#58606e"/>
<path transform="matrix(.75,0,0,.75,0,0)" stroke-width="2.568" stroke-linecap="butt" stroke-miterlimit="10" stroke-linejoin="miter" fill="none" stroke="#808080" d="M 449.65 309.87 L 479.18 309.87 L 479.18 280.39 L 449.65 280.39 L 449.65 309.87 Z "/>
<path transform="matrix(.75,0,0,.75,0,0)" d="M 449.65 274.46 L 479.18 274.46 L 479.18 244.98 L 449.65 244.98 L 449.65 274.46 Z " fill="#333840"/>
<path transform="matrix(.75,0,0,.75,0,0)" stroke-width="2.568" stroke-linecap="butt" stroke-miterlimit="10" stroke-linejoin="miter" fill="none" stroke="#808080" d="M 449.65 274.46 L 479.18 274.46 L 479.18 244.98 L 449.65 244.98 L 449.65 274.46 Z "/>
<path transform="matrix(.75,0,0,.75,0,0)" d="M 449.65 239.05 L 479.18 239.05 L 479.18 209.41 L 449.65 209.41 L 449.65 239.05 Z " fill="#333840"/>
<path transform="matrix(.75,0,0,.75,0,0)" stroke-width="2.568" stroke-linecap="butt" stroke-miterlimit="10" stroke-linejoin="miter" fill="none" stroke="#808080" d="M 449.65 239.05 L 479.18 239.05 L 479.18 209.41 L 449.65 209.41 L 449.65 239.05 Z "/>
<path transform="matrix(.75,0,0,.75,0,0)" d="M 449.65 203.48 L 479.18 203.48 L 479.18 174 L 449.65 174 L 449.65 203.48 Z " fill="#333840"/>
<path transform="matrix(.75,0,0,.75,0,0)" stroke-width="2.568" stroke-linecap="butt" stroke-miterlimit="10" stroke-linejoin="miter" fill="none" stroke="#808080" d="M 449.65 203.48 L 479.18 203.48 L 479.18 174 L 449.65 174 L 449.65 203.48 Z "/>
<path transform="matrix(.75,0,0,.75,0,0)" d="M 449.65 168.07 L 479.18 168.07 L 479.18 138.59 L 449.65 138.59 L 449.65 168.07 Z " fill="#58606e"/>
<path transform="matrix(.75,0,0,.75,0,0)" stroke-width="2.568" stroke-linecap="butt" stroke-miterlimit="10" stroke-linejoin="miter" fill="none" stroke="#808080" d="M 449.65 168.07 L 479.18 168.07 L 479.18 138.59 L 449.65 138.59 L 449.65 168.07 Z "/>
</g>
<path transform="matrix(.75,0,0,.75,0,0)" stroke-width="4.013" stroke-linecap="butt" stroke-linejoin="round" fill="none" stroke="#000000" d="M 350.46 951.57 L 350.46 968.71 "/>
<path transform="matrix(.75,0,0,.75,254.655,740.355)" d="M 0 0 L 3.85 0 L 3.85 11.69 L 17.82 11.69 L 17.82 0 L 21.83 0 L 21.83 28.52 L 17.82 28.52 L 17.82 14.9 L 3.85 14.9 L 3.85 28.52 L 0 28.52 L 0 0 Z "/>
<path transform="matrix(.75,0,0,.75,0,0)" stroke-width="4.013" stroke-linecap="butt" stroke-linejoin="round" fill="none" stroke="#000000" d="M 385.93 951.57 L 385.93 968.71 "/>
<path transform="matrix(.75,0,0,.75,281.2575,740.355)" d="M 0 0 L 3.86 0 L 3.86 11.69 L 17.98 11.69 L 17.98 0 L 21.83 0 L 21.83 28.52 L 17.98 28.52 L 17.98 14.9 L 3.86 14.9 L 3.86 28.52 L 0 28.52 L 0 0 Z "/>
<path transform="matrix(.75,0,0,.75,0,0)" stroke-width="4.013" stroke-linecap="butt" stroke-linejoin="round" fill="none" stroke="#000000" d="M 421.4 951.57 L 421.4 968.71 "/>
<path transform="matrix(.75,0,0,.75,307.02,740.355)" d="M 0 0 L 24.24 0 L 24.24 3.2 L 13.97 3.2 L 13.97 28.52 L 10.11 28.52 L 10.11 3.2 L 0 3.2 L 0 0 Z "/>
<path transform="matrix(.75,0,0,.75,0,0)" stroke-width="4.013" stroke-linecap="butt" stroke-linejoin="round" fill="none" stroke="#000000" d="M 457.03 951.57 L 457.03 968.71 "/>
<path transform="matrix(.75,0,0,.75,333.75,740.355)" d="M 0 0 L 24.07 0 L 24.07 3.2 L 13.96 3.2 L 13.96 28.52 L 10.11 28.52 L 10.11 3.2 L 0 3.2 L 0 0 Z "/>
<path transform="matrix(.75,0,0,.75,0,0)" stroke-width="4.013" stroke-linecap="butt" stroke-linejoin="round" fill="none" stroke="#000000" d="M 336.17 898.05 L 319 898.05 "/>
<path transform="matrix(.75,0,0,.75,220.95001,684.11257)" d="M 0 0 L -3.37 0 L -3.37 -21.95 C -4.34 -21.15 -5.3 -20.35 -6.74 -19.55 C -8.03 -18.74 -9.31 -18.1 -10.27 -17.78 L -10.27 -21.15 C -8.35 -21.95 -6.74 -23.07 -5.3 -24.35 C -3.85 -25.63 -2.89 -26.92 -2.25 -28.2 L 0 -28.2 L 0 0 Z "/>
<path transform="matrix(.75,0,0,.75,206.26499,668.85)" d="M 0 0 L 3.53 0 C 2.56 2.89 1.76 6.25 1.12 10.26 C 1.92 15.06 2.72 18.43 3.53 20.35 L .16 20.35 C -.49 19.07 -.97 17.79 -1.13 16.67 C -2.25 19.39 -4.5 20.83 -7.87 20.83 C -10.44 20.83 -12.36 19.87 -13.97 17.95 C -15.57 16.03 -16.38 13.46 -16.38 10.1 C -16.38 6.73 -15.57 4.17 -13.97 2.41 C -12.36 .48 -10.28 -.48 -7.71 -.48 C -6.26 -.48 -4.82 0 -3.86 .64 C -2.89 1.12 -1.93 2.25 -.97 3.53 C -.97 3.05 -.65 1.93 0 0 Z M -7.23 2.41 C -8.83 2.41 -10.12 3.05 -11.08 4.33 C -12.04 5.77 -12.52 7.69 -12.52 10.1 C -12.52 12.66 -12.04 14.58 -11.24 15.87 C -10.28 17.31 -8.99 17.95 -7.39 17.95 C -5.78 17.95 -4.5 17.31 -3.37 15.87 C -2.41 14.58 -1.77 12.66 -1.77 9.94 C -1.77 7.53 -2.25 5.61 -3.21 4.33 C -4.34 3.05 -5.62 2.41 -7.23 2.41 Z "/>
<path transform="matrix(.75,0,0,.75,0,0)" stroke-width="4.013" stroke-linecap="butt" stroke-linejoin="round" fill="none" stroke="#000000" d="M 336.17 862.64 L 319 862.64 "/>
<path transform="matrix(.75,0,0,.75,224.79752,655.03506)" d="M 0 0 L 0 3.36 L -18.61 3.36 C -18.61 2.4 -18.45 1.76 -18.13 .96 C -17.65 -.32 -16.85 -1.6 -15.89 -2.89 C -14.92 -4.01 -13.32 -5.45 -11.39 -7.05 C -8.34 -9.62 -6.26 -11.54 -5.13 -12.98 C -4.17 -14.42 -3.53 -15.86 -3.53 -17.15 C -3.53 -18.43 -4.01 -19.71 -4.97 -20.67 C -6.1 -21.47 -7.22 -21.95 -8.82 -21.95 C -10.43 -21.95 -11.87 -21.47 -12.84 -20.51 C -13.8 -19.55 -14.28 -18.11 -14.28 -16.35 L -17.81 -16.83 C -17.65 -19.39 -16.69 -21.31 -15.24 -22.75 C -13.64 -24.2 -11.39 -24.84 -8.82 -24.84 C -6.1 -24.84 -4.01 -24.04 -2.4 -22.59 C -.8 -21.15 0 -19.23 0 -17.15 C 0 -15.86 -.32 -14.9 -.8 -13.78 C -1.12 -12.66 -1.92 -11.54 -3.05 -10.26 C -4.01 -9.14 -5.77 -7.53 -8.34 -5.45 C -10.43 -3.69 -11.71 -2.57 -12.35 -1.93 C -12.84 -1.28 -13.32 -.64 -13.8 0 L 0 0 Z "/>
<path transform="matrix(.75,0,0,.75,206.26499,642.2925)" d="M 0 0 L 3.53 0 C 2.56 2.73 1.76 6.25 1.12 10.1 C 1.92 15.06 2.72 18.43 3.53 20.35 L .16 20.35 C -.49 19.07 -.97 17.79 -1.13 16.51 C -2.25 19.39 -4.5 20.67 -7.87 20.67 C -10.44 20.67 -12.36 19.71 -13.97 17.79 C -15.57 16.03 -16.38 13.46 -16.38 10.1 C -16.38 6.73 -15.57 4.17 -13.97 2.25 C -12.36 .48 -10.28 -.48 -7.71 -.48 C -6.26 -.48 -4.82 -.16 -3.86 .48 C -2.89 1.13 -1.93 2.09 -.97 3.37 C -.97 3.05 -.65 1.77 0 0 Z M -7.23 2.41 C -8.83 2.41 -10.12 3.05 -11.08 4.33 C -12.04 5.61 -12.52 7.53 -12.52 10.1 C -12.52 12.5 -12.04 14.42 -11.24 15.87 C -10.28 17.31 -8.99 17.95 -7.39 17.95 C -5.78 17.95 -4.5 17.31 -3.37 15.87 C -2.41 14.42 -1.77 12.5 -1.77 9.94 C -1.77 7.37 -2.25 5.61 -3.21 4.33 C -4.34 3.05 -5.62 2.41 -7.23 2.41 Z "/>
<path transform="matrix(.75,0,0,.75,0,0)" stroke-width="4.013" stroke-linecap="butt" stroke-linejoin="round" fill="none" stroke="#000000" d="M 336.17 827.23 L 319 827.23 "/>
<path transform="matrix(.75,0,0,.75,211.20001,625.35)" d="M 0 0 L 3.53 -.48 C 3.85 1.44 4.65 2.89 5.45 3.85 C 6.42 4.65 7.7 5.13 8.99 5.13 C 10.59 5.13 12.03 4.49 13.16 3.37 C 14.12 2.25 14.76 .8 14.76 -.8 C 14.76 -2.4 14.28 -3.68 13.16 -4.64 C 12.2 -5.77 10.91 -6.25 9.31 -6.25 C 8.66 -6.25 7.86 -6.09 6.9 -5.93 L 7.22 -8.81 C 7.54 -8.81 7.7 -8.81 7.86 -8.81 C 9.31 -8.81 10.59 -9.13 11.71 -9.93 C 13 -10.73 13.48 -12.01 13.48 -13.62 C 13.48 -14.74 13.16 -15.86 12.2 -16.66 C 11.39 -17.46 10.27 -17.94 8.99 -17.94 C 7.54 -17.94 6.42 -17.46 5.61 -16.66 C 4.65 -15.7 4.17 -14.58 3.85 -12.82 L .48 -13.46 C .8 -15.7 1.76 -17.62 3.21 -18.9 C 4.81 -20.03 6.58 -20.83 8.82 -20.83 C 10.43 -20.83 11.71 -20.35 13.16 -19.71 C 14.28 -19.06 15.25 -18.1 16.05 -17.14 C 16.69 -15.86 17.01 -14.74 17.01 -13.46 C 17.01 -12.17 16.69 -11.05 16.05 -10.09 C 15.41 -9.13 14.44 -8.33 13.16 -7.85 C 14.92 -7.37 16.05 -6.57 17.01 -5.45 C 17.97 -4.16 18.46 -2.72 18.46 -.8 C 18.46 1.6 17.49 3.69 15.73 5.29 C 13.96 7.05 11.71 7.85 8.99 7.85 C 6.42 7.85 4.49 7.21 2.89 5.61 C 1.12 4.17 .32 2.41 0 0 Z "/>
<path transform="matrix(.75,0,0,.75,206.26499,615.615)" d="M 0 0 L 3.53 0 C 2.56 2.89 1.76 6.25 1.12 10.26 C 1.92 15.23 2.72 18.59 3.53 20.35 L .16 20.35 C -.49 19.07 -.97 17.95 -1.13 16.67 C -2.25 19.39 -4.5 20.83 -7.87 20.83 C -10.44 20.83 -12.36 19.87 -13.97 17.95 C -15.57 16.03 -16.38 13.46 -16.38 10.26 C -16.38 6.89 -15.57 4.33 -13.97 2.41 C -12.36 .65 -10.28 -.32 -7.71 -.32 C -6.26 -.32 -4.82 0 -3.86 .65 C -2.89 1.29 -1.93 2.25 -.97 3.53 C -.97 3.05 -.65 1.93 0 0 Z M -7.23 2.41 C -8.83 2.41 -10.12 3.05 -11.08 4.49 C -12.04 5.77 -12.52 7.69 -12.52 10.26 C -12.52 12.66 -12.04 14.58 -11.24 15.87 C -10.28 17.31 -8.99 17.95 -7.39 17.95 C -5.78 17.95 -4.5 17.31 -3.37 16.03 C -2.41 14.58 -1.77 12.66 -1.77 10.1 C -1.77 7.53 -2.25 5.61 -3.21 4.33 C -4.34 3.05 -5.62 2.41 -7.23 2.41 Z "/>
<path transform="matrix(.75,0,0,.75,0,0)" stroke-width="4.013" stroke-linecap="butt" stroke-linejoin="round" fill="none" stroke="#000000" d="M 336.17 791.66 L 319 791.66 "/>
<path transform="matrix(.75,0,0,.75,219.5025,604.32)" d="M 0 0 L 0 -6.73 L -12.2 -6.73 L -12.2 -9.93 L .64 -28.04 L 3.53 -28.04 L 3.53 -9.93 L 7.22 -9.93 L 7.22 -6.73 L 3.53 -6.73 L 3.53 0 L 0 0 Z M 0 -9.93 L 0 -22.59 L -8.83 -9.93 L 0 -9.93 Z "/>
<path transform="matrix(.75,0,0,.75,206.26499,589.0575)" d="M 0 0 L 3.53 0 C 2.56 2.89 1.76 6.25 1.12 10.26 C 1.92 15.07 2.72 18.43 3.53 20.35 L .16 20.35 C -.49 19.07 -.97 17.79 -1.13 16.67 C -2.25 19.39 -4.5 20.83 -7.87 20.83 C -10.44 20.83 -12.36 19.87 -13.97 17.95 C -15.57 16.03 -16.38 13.46 -16.38 10.1 C -16.38 6.73 -15.57 4.17 -13.97 2.41 C -12.36 .49 -10.28 -.48 -7.71 -.48 C -6.26 -.48 -4.82 0 -3.86 .49 C -2.89 1.13 -1.93 2.09 -.97 3.53 C -.97 3.05 -.65 1.93 0 0 Z M -7.23 2.41 C -8.83 2.41 -10.12 3.05 -11.08 4.33 C -12.04 5.77 -12.52 7.7 -12.52 10.1 C -12.52 12.5 -12.04 14.43 -11.24 15.87 C -10.28 17.31 -8.99 17.95 -7.39 17.95 C -5.78 17.95 -4.5 17.31 -3.37 15.87 C -2.41 14.59 -1.77 12.5 -1.77 9.94 C -1.77 7.54 -2.25 5.61 -3.21 4.33 C -4.34 3.05 -5.62 2.41 -7.23 2.41 Z "/>
<path transform="matrix(.75,0,0,.75,0,0)" stroke-width="4.013" stroke-linecap="butt" stroke-linejoin="round" fill="none" stroke="#000000" d="M 336.17 756.25 L 319 756.25 "/>
<path transform="matrix(.75,0,0,.75,211.20001,572.235)" d="M 0 0 L 3.69 -.32 C 3.85 1.45 4.49 2.73 5.45 3.69 C 6.42 4.49 7.7 4.97 8.99 4.97 C 10.75 4.97 12.03 4.33 13.32 3.05 C 14.44 1.77 15.08 .16 15.08 -1.92 C 15.08 -3.84 14.44 -5.44 13.32 -6.57 C 12.2 -7.69 10.75 -8.33 8.99 -8.33 C 7.86 -8.33 6.9 -8.01 5.94 -7.53 C 5.13 -6.89 4.33 -6.41 3.85 -5.6 L .64 -5.92 L 3.37 -20.34 L 17.33 -20.34 L 17.33 -17.14 L 6.1 -17.14 L 4.65 -9.61 C 6.26 -10.73 8.02 -11.37 9.95 -11.37 C 12.36 -11.37 14.44 -10.41 16.05 -8.81 C 17.81 -7.05 18.62 -4.96 18.62 -2.24 C 18.62 .32 17.97 2.57 16.37 4.33 C 14.6 6.57 12.2 7.69 8.99 7.69 C 6.42 7.69 4.49 7.05 2.89 5.61 C 1.12 4.17 .32 2.25 0 0 Z "/>
<path transform="matrix(.75,0,0,.75,206.26499,562.5075)" d="M 0 0 L 3.53 0 C 2.56 2.72 1.76 6.24 1.12 10.09 C 1.92 15.06 2.72 18.42 3.53 20.34 L .16 20.34 C -.49 19.06 -.97 17.78 -1.13 16.5 C -2.25 19.38 -4.5 20.66 -7.87 20.66 C -10.44 20.66 -12.36 19.7 -13.97 17.78 C -15.57 16.02 -16.38 13.29 -16.38 10.09 C -16.38 6.72 -15.57 4.16 -13.97 2.24 C -12.36 .48 -10.28 -.49 -7.71 -.49 C -6.26 -.49 -4.82 -.16 -3.86 .48 C -2.89 1.12 -1.93 2.08 -.97 3.36 C -.97 2.88 -.65 1.76 0 0 Z M -7.23 2.4 C -8.83 2.4 -10.12 3.04 -11.08 4.32 C -12.04 5.6 -12.52 7.53 -12.52 10.09 C -12.52 12.49 -12.04 14.42 -11.24 15.86 C -10.28 17.14 -8.99 17.94 -7.39 17.94 C -5.78 17.94 -4.5 17.14 -3.37 15.86 C -2.41 14.42 -1.77 12.49 -1.77 9.93 C -1.77 7.37 -2.25 5.6 -3.21 4.32 C -4.34 3.04 -5.62 2.4 -7.23 2.4 Z "/>
<path transform="matrix(.75,0,0,.75,0,0)" stroke-width="4.013" stroke-linecap="butt" stroke-linejoin="round" fill="none" stroke="#000000" d="M 336.17 720.84 L 319 720.84 "/>
<path transform="matrix(.75,0,0,.75,224.6775,535.22256)" d="M 0 0 L -3.53 .33 C -3.85 -1.12 -4.17 -2.08 -4.81 -2.72 C -5.77 -3.68 -6.9 -4.16 -8.18 -4.16 C -9.31 -4.16 -10.27 -3.84 -11.07 -3.2 C -12.19 -2.4 -13 -1.28 -13.64 .17 C -14.28 1.77 -14.6 3.85 -14.6 6.73 C -13.8 5.45 -12.84 4.65 -11.55 4.01 C -10.43 3.37 -9.15 3.05 -7.86 3.05 C -5.61 3.05 -3.53 3.85 -1.92 5.61 C -.32 7.21 .49 9.46 .49 12.02 C .49 13.78 0 15.55 -.64 16.99 C -1.44 18.59 -2.56 19.71 -3.85 20.51 C -5.13 21.15 -6.58 21.63 -8.34 21.63 C -11.23 21.63 -13.48 20.51 -15.41 18.43 C -17.17 16.35 -18.13 12.98 -18.13 8.02 C -18.13 2.73 -17.01 -1.28 -15.08 -3.84 C -13.32 -5.92 -11.07 -7.04 -8.02 -7.04 C -5.77 -7.04 -4.01 -6.4 -2.56 -5.12 C -1.12 -3.84 -.32 -2.24 0 0 Z M -14.12 12.02 C -14.12 13.3 -13.8 14.42 -13.32 15.55 C -12.84 16.67 -12.19 17.47 -11.23 17.95 C -10.27 18.59 -9.47 18.75 -8.34 18.75 C -6.9 18.75 -5.77 18.27 -4.65 16.99 C -3.69 15.87 -3.05 14.26 -3.05 12.34 C -3.05 10.42 -3.69 8.82 -4.65 7.7 C -5.61 6.57 -6.9 6.09 -8.5 6.09 C -10.11 6.09 -11.39 6.57 -12.52 7.7 C -13.64 8.82 -14.12 10.26 -14.12 12.02 Z "/>
<path transform="matrix(.75,0,0,.75,206.26499,535.83)" d="M 0 0 L 3.53 0 C 2.56 2.88 1.76 6.24 1.12 10.25 C 1.92 15.22 2.72 18.58 3.53 20.34 L .16 20.34 C -.49 19.06 -.97 17.94 -1.13 16.66 C -2.25 19.38 -4.5 20.82 -7.87 20.82 C -10.44 20.82 -12.36 19.86 -13.97 17.94 C -15.57 16.02 -16.38 13.45 -16.38 10.25 C -16.38 6.89 -15.57 4.16 -13.97 2.4 C -12.36 .48 -10.28 -.32 -7.71 -.32 C -6.26 -.32 -4.82 0 -3.86 .64 C -2.89 1.28 -1.93 2.24 -.97 3.52 C -.97 3.04 -.65 1.92 0 0 Z M -7.23 2.4 C -8.83 2.4 -10.12 3.04 -11.08 4.48 C -12.04 5.76 -12.52 7.69 -12.52 10.25 C -12.52 12.65 -12.04 14.58 -11.24 15.86 C -10.28 17.3 -8.99 17.94 -7.39 17.94 C -5.78 17.94 -4.5 17.3 -3.37 16.02 C -2.41 14.58 -1.77 12.65 -1.77 10.09 C -1.77 7.53 -2.25 5.6 -3.21 4.32 C -4.34 3.04 -5.62 2.4 -7.23 2.4 Z "/>
<path transform="matrix(.75,0,0,.75,0,0)" stroke-width="4.013" stroke-linecap="butt" stroke-linejoin="round" fill="none" stroke="#000000" d="M 336.17 685.28 L 319 685.28 "/>
<path transform="matrix(.75,0,0,.75,211.44,506.265)" d="M 0 0 L 0 -3.36 L 18.14 -3.36 L 18.14 -.64 C 16.37 1.28 14.6 3.85 12.84 6.89 C 11.07 10.1 9.63 13.3 8.67 16.66 C 8.02 18.91 7.54 21.47 7.38 24.35 L 3.85 24.35 C 3.85 22.11 4.33 19.39 5.13 16.34 C 5.94 13.14 7.22 10.26 8.67 7.21 C 10.27 4.33 11.88 1.92 13.64 0 L 0 0 Z "/>
<path transform="matrix(.75,0,0,.75,206.26499,509.27253)" d="M 0 0 L 3.53 0 C 2.56 2.88 1.76 6.25 1.12 10.09 C 1.92 15.06 2.72 18.42 3.53 20.34 L .16 20.34 C -.49 19.06 -.97 17.78 -1.13 16.66 C -2.25 19.38 -4.5 20.67 -7.87 20.67 C -10.44 20.67 -12.36 19.86 -13.97 17.94 C -15.57 16.02 -16.38 13.46 -16.38 10.09 C -16.38 6.73 -15.57 4.16 -13.97 2.4 C -12.36 .48 -10.28 -.48 -7.71 -.48 C -6.26 -.48 -4.82 -.16 -3.86 .48 C -2.89 1.12 -1.93 2.08 -.97 3.36 C -.97 3.04 -.65 1.92 0 0 Z M -7.23 2.4 C -8.83 2.4 -10.12 3.04 -11.08 4.32 C -12.04 5.76 -12.52 7.69 -12.52 10.09 C -12.52 12.49 -12.04 14.42 -11.24 15.86 C -10.28 17.3 -8.99 17.94 -7.39 17.94 C -5.78 17.94 -4.5 17.3 -3.37 15.86 C -2.41 14.58 -1.77 12.49 -1.77 9.93 C -1.77 7.53 -2.25 5.6 -3.21 4.32 C -4.34 3.04 -5.62 2.4 -7.23 2.4 Z "/>
<path transform="matrix(.75,0,0,.75,0,0)" stroke-width="4.013" stroke-linecap="butt" stroke-linejoin="round" fill="none" stroke="#000000" d="M 336.17 649.87 L 319 649.87 "/>
<path transform="matrix(.75,0,0,.75,215.16751,486.555)" d="M 0 0 C -1.44 -.64 -2.4 -1.28 -3.21 -2.24 C -3.85 -3.2 -4.17 -4.48 -4.17 -5.76 C -4.17 -7.85 -3.53 -9.45 -1.92 -10.89 C -.48 -12.33 1.45 -12.97 3.86 -12.97 C 6.42 -12.97 8.35 -12.33 9.79 -10.89 C 11.4 -9.45 12.04 -7.69 12.04 -5.76 C 12.04 -4.32 11.72 -3.2 11.08 -2.24 C 10.28 -1.28 9.31 -.64 7.87 0 C 9.63 .49 10.92 1.45 11.88 2.57 C 12.68 3.85 13.17 5.45 13.17 7.05 C 13.17 9.46 12.36 11.54 10.6 13.14 C 8.99 14.74 6.74 15.55 4.02 15.55 C 1.13 15.55 -1.12 14.74 -2.73 13.14 C -4.49 11.54 -5.29 9.46 -5.29 7.05 C -5.29 5.29 -4.81 3.69 -3.85 2.41 C -3.05 1.29 -1.6 .49 0 0 Z M -.64 -5.92 C -.64 -4.64 -.16 -3.52 .65 -2.72 C 1.45 -1.76 2.57 -1.44 4.02 -1.44 C 5.3 -1.44 6.42 -1.76 7.23 -2.72 C 8.19 -3.52 8.51 -4.48 8.51 -5.76 C 8.51 -6.89 8.03 -8.01 7.23 -8.81 C 6.42 -9.77 5.3 -10.09 4.02 -10.09 C 2.57 -10.09 1.45 -9.77 .65 -8.97 C -.16 -8.01 -.64 -7.05 -.64 -5.92 Z M -1.76 7.05 C -1.76 8.02 -1.44 8.98 -.96 9.94 C -.64 10.9 .16 11.54 1.13 12.02 C 1.93 12.5 2.89 12.82 4.02 12.82 C 5.62 12.82 6.91 12.34 8.03 11.22 C 9.15 10.1 9.63 8.82 9.63 7.21 C 9.63 5.45 9.15 4.17 8.03 3.05 C 6.91 1.93 5.46 1.45 3.86 1.45 C 2.25 1.45 .97 1.93 -.16 3.05 C -1.28 4.17 -1.76 5.45 -1.76 7.05 Z "/>
<path transform="matrix(.75,0,0,.75,206.26499,482.715)" d="M 0 0 L 3.53 0 C 2.56 2.72 1.76 6.09 1.12 10.09 C 1.92 15.06 2.72 18.42 3.53 20.19 L .16 20.19 C -.49 19.06 -.97 17.78 -1.13 16.5 C -2.25 19.38 -4.5 20.67 -7.87 20.67 C -10.44 20.67 -12.36 19.7 -13.97 17.78 C -15.57 16.02 -16.38 13.3 -16.38 10.09 C -16.38 6.73 -15.57 4.16 -13.97 2.24 C -12.36 .48 -10.28 -.48 -7.71 -.48 C -6.26 -.48 -4.82 -.16 -3.86 .48 C -2.89 1.12 -1.93 2.08 -.97 3.36 C -.97 2.88 -.65 1.76 0 0 Z M -7.23 2.24 C -8.83 2.24 -10.12 3.04 -11.08 4.32 C -12.04 5.61 -12.52 7.53 -12.52 10.09 C -12.52 12.49 -12.04 14.42 -11.24 15.86 C -10.28 17.14 -8.99 17.94 -7.39 17.94 C -5.78 17.94 -4.5 17.14 -3.37 15.86 C -2.41 14.42 -1.77 12.49 -1.77 9.93 C -1.77 7.37 -2.25 5.61 -3.21 4.16 C -4.34 3.04 -5.62 2.24 -7.23 2.24 Z "/>
<path transform="matrix(.75,0,0,.75,0,0)" stroke-width="4.013" stroke-linecap="butt" stroke-linejoin="round" fill="none" stroke="#000000" d="M 336.17 614.3 L 319 614.3 "/>
<path transform="matrix(.75,0,0,.75,211.68,466.3725)" d="M 0 0 L 3.21 -.16 C 3.53 1.44 4.01 2.4 4.81 3.2 C 5.62 3.84 6.58 4.16 7.86 4.16 C 8.99 4.16 9.79 4 10.59 3.52 C 11.39 3.04 12.04 2.4 12.68 1.6 C 13.16 .8 13.48 -.32 13.96 -1.77 C 14.28 -3.05 14.44 -4.49 14.44 -5.93 C 14.44 -6.09 14.44 -6.25 14.44 -6.57 C 13.64 -5.45 12.84 -4.65 11.56 -4.01 C 10.43 -3.21 9.15 -2.89 7.7 -2.89 C 5.46 -2.89 3.37 -3.69 1.76 -5.45 C .16 -7.05 -.64 -9.3 -.64 -12.18 C -.64 -14.9 .32 -17.31 1.92 -18.91 C 3.53 -20.67 5.78 -21.63 8.18 -21.63 C 10.11 -21.63 11.72 -21.15 13.16 -20.03 C 14.77 -19.07 15.89 -17.63 16.69 -15.87 C 17.49 -14.1 17.82 -11.38 17.82 -8.01 C 17.82 -4.49 17.49 -1.61 16.69 .48 C 15.89 2.72 14.77 4.32 13.16 5.28 C 11.72 6.41 9.79 7.05 7.86 7.05 C 5.62 7.05 3.85 6.41 2.41 5.28 C .96 4 .16 2.24 0 0 Z M 14.12 -12.34 C 14.12 -14.26 13.48 -15.87 12.52 -16.99 C 11.39 -18.11 10.11 -18.75 8.67 -18.75 C 7.06 -18.75 5.78 -18.11 4.65 -16.83 C 3.53 -15.54 2.89 -13.94 2.89 -12.02 C 2.89 -10.26 3.53 -8.82 4.49 -7.69 C 5.62 -6.57 6.9 -5.93 8.51 -5.93 C 10.11 -5.93 11.39 -6.57 12.52 -7.69 C 13.48 -8.82 14.12 -10.26 14.12 -12.34 Z "/>
<path transform="matrix(.75,0,0,.75,206.26499,456.03749)" d="M 0 0 L 3.53 0 C 2.56 2.88 1.76 6.25 1.12 10.25 C 1.92 15.22 2.72 18.58 3.53 20.35 L .16 20.35 C -.49 19.06 -.97 17.78 -1.13 16.66 C -2.25 19.38 -4.5 20.83 -7.87 20.83 C -10.44 20.83 -12.36 19.87 -13.97 17.94 C -15.57 16.02 -16.38 13.46 -16.38 10.25 C -16.38 6.73 -15.57 4.16 -13.97 2.4 C -12.36 .48 -10.28 -.32 -7.71 -.32 C -6.26 -.32 -4.82 0 -3.86 .64 C -2.89 1.28 -1.93 2.24 -.97 3.52 C -.97 3.04 -.65 1.92 0 0 Z M -7.23 2.4 C -8.83 2.4 -10.12 3.04 -11.08 4.48 C -12.04 5.77 -12.52 7.69 -12.52 10.25 C -12.52 12.66 -12.04 14.58 -11.24 15.86 C -10.28 17.3 -8.99 17.94 -7.39 17.94 C -5.78 17.94 -4.5 17.3 -3.37 15.86 C -2.41 14.58 -1.77 12.66 -1.77 10.09 C -1.77 7.53 -2.25 5.61 -3.21 4.32 C -4.34 3.04 -5.62 2.4 -7.23 2.4 Z "/>
<path transform="matrix(.75,0,0,.75,0,0)" stroke-width="4.013" stroke-linecap="butt" stroke-linejoin="round" fill="none" stroke="#000000" d="M 336.17 578.89 L 319 578.89 "/>
<path transform="matrix(.75,0,0,.75,204.57749,444.7425)" d="M 0 0 L -3.37 0 L -3.37 -21.95 C -4.34 -21.15 -5.3 -20.35 -6.74 -19.55 C -8.03 -18.75 -9.31 -18.27 -10.27 -17.79 L -10.27 -21.15 C -8.35 -22.11 -6.74 -23.24 -5.3 -24.52 C -3.85 -25.64 -2.89 -26.92 -2.25 -28.2 L 0 -28.2 L 0 0 Z "/>
<path transform="matrix(.75,0,0,.75,211.20001,434.28749)" d="M 0 0 C 0 -3.21 .32 -5.93 1.12 -7.85 C 1.76 -9.94 2.73 -11.54 4.01 -12.66 C 5.45 -13.78 7.06 -14.26 9.15 -14.26 C 10.59 -14.26 12.03 -13.94 13.16 -13.3 C 14.28 -12.66 15.25 -11.86 15.89 -10.74 C 16.69 -9.62 17.33 -8.17 17.65 -6.57 C 18.13 -4.97 18.29 -2.73 18.29 0 C 18.29 3.36 17.97 6.09 17.33 8.01 C 16.69 10.09 15.57 11.69 14.28 12.65 C 13 13.78 11.23 14.26 9.15 14.26 C 6.42 14.26 4.33 13.46 2.73 11.53 C .96 9.13 0 5.28 0 0 Z M 3.53 0 C 3.53 4.64 4.01 7.69 5.13 9.29 C 6.26 10.73 7.54 11.53 9.15 11.53 C 10.75 11.53 12.03 10.73 13.16 9.29 C 14.28 7.69 14.76 4.64 14.76 0 C 14.76 -4.49 14.28 -7.53 13.16 -9.14 C 12.03 -10.58 10.75 -11.38 9.15 -11.38 C 7.54 -11.38 6.26 -10.74 5.29 -9.46 C 4.17 -7.69 3.53 -4.49 3.53 0 Z "/>
<path transform="matrix(.75,0,0,.75,189.8925,429.48)" d="M 0 0 L 3.53 0 C 2.56 2.72 1.76 6.25 1.12 10.09 C 1.92 15.06 2.73 18.42 3.53 20.35 L 0 20.35 C -.49 19.06 -.97 17.78 -1.13 16.5 C -2.25 19.39 -4.5 20.67 -7.87 20.67 C -10.44 20.67 -12.52 19.87 -13.97 17.94 C -15.57 16.02 -16.38 13.46 -16.38 10.09 C -16.38 6.73 -15.57 4.16 -13.97 2.4 C -12.36 .48 -10.44 -.48 -7.71 -.48 C -6.26 -.48 -4.82 -.16 -3.86 .48 C -2.89 1.12 -1.93 2.08 -.97 3.36 C -.97 3.04 -.65 1.92 0 0 Z M -7.23 2.4 C -8.83 2.4 -10.12 3.04 -11.08 4.32 C -12.04 5.77 -12.52 7.69 -12.52 10.09 C -12.52 12.5 -12.04 14.42 -11.24 15.86 C -10.28 17.3 -8.99 17.94 -7.39 17.94 C -5.78 17.94 -4.5 17.3 -3.37 15.86 C -2.41 14.58 -1.77 12.5 -1.77 9.93 C -1.77 7.53 -2.25 5.61 -3.37 4.32 C -4.34 3.04 -5.62 2.4 -7.23 2.4 Z "/>
<path transform="matrix(.75,0,0,.75,0,0)" stroke-width="4.013" stroke-linecap="butt" stroke-linejoin="round" fill="none" stroke="#000000" d="M 336.17 543.48 L 319 543.48 "/>
<path transform="matrix(.75,0,0,.75,220.95001,418.185)" d="M 0 0 L -3.37 0 L -3.37 -21.95 C -4.34 -21.15 -5.3 -20.35 -6.74 -19.55 C -8.03 -18.91 -9.31 -18.27 -10.27 -17.79 L -10.27 -21.15 C -8.35 -22.11 -6.74 -23.24 -5.3 -24.52 C -3.85 -25.8 -2.89 -26.92 -2.25 -28.2 L 0 -28.2 L 0 0 Z "/>
<path transform="matrix(.75,0,0,.75,195.66751,402.9225)" d="M 0 0 L 3.53 0 L 9.31 16.02 L 15.09 0 L 18.62 0 L 11.08 20.35 L 11.08 28.04 L 7.54 28.04 L 7.54 20.35 L 0 0 Z "/>
<path transform="matrix(.75,0,0,.75,0,0)" stroke-width="4.013" stroke-linecap="butt" stroke-linejoin="round" fill="none" stroke="#000000" d="M 336.17 507.91 L 319 507.91 "/>
<path transform="matrix(.75,0,0,.75,224.79752,389.09999)" d="M 0 0 L 0 3.21 L -18.61 3.21 C -18.61 2.41 -18.45 1.61 -18.13 .8 C -17.65 -.48 -16.85 -1.6 -15.89 -2.88 C -14.92 -4 -13.32 -5.44 -11.39 -7.21 C -8.34 -9.61 -6.26 -11.53 -5.13 -12.97 C -4.17 -14.58 -3.53 -15.86 -3.53 -17.14 C -3.53 -18.58 -4.01 -19.7 -4.97 -20.67 C -6.1 -21.63 -7.22 -22.11 -8.82 -22.11 C -10.43 -22.11 -11.87 -21.63 -12.84 -20.51 C -13.8 -19.54 -14.28 -18.1 -14.28 -16.34 L -17.81 -16.82 C -17.65 -19.38 -16.69 -21.47 -15.24 -22.91 C -13.64 -24.19 -11.39 -24.99 -8.82 -24.99 C -6.1 -24.99 -4.01 -24.19 -2.4 -22.59 C -.8 -21.15 0 -19.38 0 -17.14 C 0 -16.02 -.32 -14.9 -.8 -13.78 C -1.12 -12.65 -1.92 -11.53 -3.05 -10.41 C -4.01 -9.13 -5.77 -7.53 -8.34 -5.44 C -10.43 -3.68 -11.71 -2.56 -12.35 -1.92 C -12.84 -1.28 -13.32 -.64 -13.8 0 L 0 0 Z "/>
<path transform="matrix(.75,0,0,.75,195.66751,376.245)" d="M 0 0 L 3.53 0 L 9.31 16.02 L 15.09 0 L 18.62 0 L 11.08 20.35 L 11.08 28.2 L 7.54 28.2 L 7.54 20.35 L 0 0 Z "/>
<path transform="matrix(.75,0,0,.75,0,0)" stroke-width="4.013" stroke-linecap="butt" stroke-linejoin="round" fill="none" stroke="#000000" d="M 336.17 472.5 L 319 472.5 "/>
<path transform="matrix(.75,0,0,.75,211.20001,359.42253)" d="M 0 0 L 3.53 -.48 C 3.85 1.44 4.65 2.88 5.45 3.68 C 6.42 4.64 7.7 4.96 8.99 4.96 C 10.59 4.96 12.03 4.48 13.16 3.36 C 14.12 2.24 14.76 .8 14.76 -.8 C 14.76 -2.41 14.28 -3.69 13.16 -4.81 C 12.2 -5.77 10.91 -6.25 9.31 -6.25 C 8.66 -6.25 7.86 -6.09 6.9 -5.93 L 7.22 -8.97 C 7.54 -8.97 7.7 -8.97 7.86 -8.97 C 9.31 -8.97 10.59 -9.29 11.71 -10.1 C 13 -10.9 13.48 -12.02 13.48 -13.62 C 13.48 -14.9 13.16 -15.86 12.2 -16.67 C 11.39 -17.47 10.27 -17.95 8.99 -17.95 C 7.54 -17.95 6.42 -17.47 5.61 -16.67 C 4.65 -15.86 4.17 -14.58 3.85 -12.98 L .48 -13.46 C .8 -15.86 1.76 -17.63 3.21 -18.91 C 4.81 -20.19 6.58 -20.83 8.82 -20.83 C 10.43 -20.83 11.71 -20.51 13.16 -19.87 C 14.28 -19.07 15.25 -18.27 16.05 -17.15 C 16.69 -16.02 17.01 -14.74 17.01 -13.46 C 17.01 -12.34 16.69 -11.22 16.05 -10.26 C 15.41 -9.13 14.44 -8.33 13.16 -7.85 C 14.92 -7.53 16.05 -6.57 17.01 -5.45 C 17.97 -4.17 18.46 -2.73 18.46 -.96 C 18.46 1.44 17.49 3.52 15.73 5.29 C 13.96 7.05 11.71 7.85 8.99 7.85 C 6.42 7.85 4.49 7.05 2.89 5.61 C 1.12 4.16 .32 2.24 0 0 Z "/>
<path transform="matrix(.75,0,0,.75,195.66751,349.6875)" d="M 0 0 L 3.53 0 L 9.31 16.02 L 15.09 0 L 18.62 0 L 11.08 20.35 L 11.08 28.04 L 7.54 28.04 L 7.54 20.35 L 0 0 Z "/>
<path transform="matrix(.75,0,0,.75,0,0)" stroke-width="4.013" stroke-linecap="butt" stroke-linejoin="round" fill="none" stroke="#000000" d="M 336.17 437.09 L 319 437.09 "/>
<path transform="matrix(.75,0,0,.75,219.5025,338.2725)" d="M 0 0 L 0 -6.73 L -12.2 -6.73 L -12.2 -9.77 L .64 -28.04 L 3.53 -28.04 L 3.53 -9.77 L 7.22 -9.77 L 7.22 -6.73 L 3.53 -6.73 L 3.53 0 L 0 0 Z M 0 -9.77 L 0 -22.43 L -8.83 -9.77 L 0 -9.77 Z "/>
<path transform="matrix(.75,0,0,.75,195.66751,323.01)" d="M 0 0 L 3.53 0 L 9.31 16.02 L 15.09 0 L 18.62 0 L 11.08 20.35 L 11.08 28.2 L 7.54 28.2 L 7.54 20.35 L 0 0 Z "/>
<path transform="matrix(.75,0,0,.75,0,0)" stroke-width="4.013" stroke-linecap="butt" stroke-linejoin="round" fill="none" stroke="#000000" d="M 336.17 401.52 L 319 401.52 "/>
<path transform="matrix(.75,0,0,.75,211.20001,306.1875)" d="M 0 0 L 3.69 -.32 C 3.85 1.44 4.49 2.88 5.45 3.68 C 6.42 4.65 7.7 4.97 8.99 4.97 C 10.75 4.97 12.03 4.33 13.32 3.04 C 14.44 1.92 15.08 .16 15.08 -1.92 C 15.08 -3.85 14.44 -5.29 13.32 -6.41 C 12.2 -7.53 10.75 -8.17 8.99 -8.17 C 7.86 -8.17 6.9 -7.85 5.94 -7.37 C 5.13 -6.89 4.33 -6.25 3.85 -5.45 L .64 -5.93 L 3.37 -20.35 L 17.33 -20.35 L 17.33 -16.98 L 6.1 -16.98 L 4.65 -9.45 C 6.26 -10.74 8.02 -11.22 9.95 -11.22 C 12.36 -11.22 14.44 -10.42 16.05 -8.65 C 17.81 -7.05 18.62 -4.81 18.62 -2.24 C 18.62 .32 17.97 2.56 16.37 4.49 C 14.6 6.73 12.2 7.85 8.99 7.85 C 6.42 7.85 4.49 7.05 2.89 5.61 C 1.12 4.33 .32 2.4 0 0 Z "/>
<path transform="matrix(.75,0,0,.75,195.66751,296.45249)" d="M 0 0 L 3.53 0 L 9.31 16.02 L 15.09 0 L 18.62 0 L 11.08 20.35 L 11.08 28.04 L 7.54 28.04 L 7.54 20.35 L 0 0 Z "/>
<path transform="matrix(.75,0,0,.75,0,0)" stroke-width="4.013" stroke-linecap="butt" stroke-linejoin="round" fill="none" stroke="#000000" d="M 336.17 366.11 L 319 366.11 "/>
<path transform="matrix(.75,0,0,.75,224.6775,269.29499)" d="M 0 0 L -3.53 .16 C -3.85 -1.12 -4.17 -2.08 -4.81 -2.72 C -5.77 -3.68 -6.9 -4.17 -8.18 -4.17 C -9.31 -4.17 -10.27 -3.84 -11.07 -3.36 C -12.19 -2.56 -13 -1.28 -13.64 .16 C -14.28 1.76 -14.6 3.85 -14.6 6.73 C -13.8 5.45 -12.84 4.49 -11.55 3.85 C -10.43 3.21 -9.15 2.88 -7.86 2.88 C -5.61 2.88 -3.53 3.85 -1.92 5.45 C -.32 7.21 .49 9.29 .49 12.02 C .49 13.78 0 15.38 -.64 16.98 C -1.44 18.43 -2.56 19.55 -3.85 20.35 C -5.13 21.15 -6.58 21.47 -8.34 21.47 C -11.23 21.47 -13.48 20.51 -15.41 18.43 C -17.17 16.34 -18.13 12.82 -18.13 8.01 C -18.13 2.56 -17.01 -1.28 -15.08 -3.84 C -13.32 -5.93 -11.07 -7.05 -8.02 -7.05 C -5.77 -7.05 -4.01 -6.41 -2.56 -5.13 C -1.12 -3.84 -.32 -2.24 0 0 Z M -14.12 12.02 C -14.12 13.14 -13.8 14.26 -13.32 15.38 C -12.84 16.5 -12.19 17.3 -11.23 17.95 C -10.27 18.43 -9.47 18.75 -8.34 18.75 C -6.9 18.75 -5.77 18.11 -4.65 16.98 C -3.69 15.86 -3.05 14.26 -3.05 12.18 C -3.05 10.25 -3.69 8.81 -4.65 7.69 C -5.61 6.57 -6.9 5.93 -8.5 5.93 C -10.11 5.93 -11.39 6.57 -12.52 7.69 C -13.64 8.81 -14.12 10.25 -14.12 12.02 Z "/>
<path transform="matrix(.75,0,0,.75,195.66751,269.895)" d="M 0 0 L 3.53 0 L 9.31 16.02 L 15.09 0 L 18.62 0 L 11.08 20.35 L 11.08 28.04 L 7.54 28.04 L 7.54 20.35 L 0 0 Z "/>
<path transform="matrix(.75,0,0,.75,0,0)" stroke-width="4.013" stroke-linecap="butt" stroke-linejoin="round" fill="none" stroke="#000000" d="M 336.17 330.7 L 319 330.7 "/>
<path transform="matrix(.75,0,0,.75,211.44,240.2175)" d="M 0 0 L 0 -3.37 L 18.14 -3.37 L 18.14 -.64 C 16.37 1.28 14.6 3.84 12.84 7.05 C 11.07 10.09 9.63 13.3 8.67 16.66 C 8.02 19.06 7.54 21.63 7.38 24.35 L 3.85 24.35 C 3.85 22.11 4.33 19.54 5.13 16.34 C 5.94 13.3 7.22 10.25 8.67 7.37 C 10.27 4.48 11.88 2.08 13.64 0 L 0 0 Z "/>
<path transform="matrix(.75,0,0,.75,195.66751,243.2175)" d="M 0 0 L 3.53 0 L 9.31 16.02 L 15.09 0 L 18.62 0 L 11.08 20.35 L 11.08 28.2 L 7.54 28.2 L 7.54 20.35 L 0 0 Z "/>
<path transform="matrix(.75,0,0,.75,0,0)" stroke-width="4.013" stroke-linecap="butt" stroke-linejoin="round" fill="none" stroke="#000000" d="M 336.17 295.13 L 319 295.13 "/>
<path transform="matrix(.75,0,0,.75,215.16751,220.5075)" d="M 0 0 C -1.44 -.48 -2.4 -1.28 -3.21 -2.24 C -3.85 -3.2 -4.17 -4.33 -4.17 -5.61 C -4.17 -7.69 -3.53 -9.45 -1.92 -10.9 C -.48 -12.18 1.45 -12.98 3.86 -12.98 C 6.42 -12.98 8.35 -12.18 9.79 -10.74 C 11.4 -9.29 12.04 -7.69 12.04 -5.61 C 12.04 -4.33 11.72 -3.2 11.08 -2.24 C 10.28 -1.28 9.31 -.48 7.87 0 C 9.63 .64 10.92 1.44 11.88 2.72 C 12.68 4.01 13.17 5.45 13.17 7.21 C 13.17 9.61 12.36 11.7 10.6 13.3 C 8.99 14.9 6.74 15.7 4.02 15.7 C 1.13 15.7 -1.12 14.9 -2.73 13.3 C -4.49 11.7 -5.29 9.61 -5.29 7.05 C -5.29 5.29 -4.81 3.85 -3.85 2.56 C -3.05 1.28 -1.6 .48 0 0 Z M -.64 -5.77 C -.64 -4.49 -.16 -3.36 .65 -2.56 C 1.45 -1.76 2.57 -1.28 4.02 -1.28 C 5.3 -1.28 6.42 -1.76 7.23 -2.56 C 8.19 -3.36 8.51 -4.33 8.51 -5.61 C 8.51 -6.89 8.03 -7.85 7.23 -8.81 C 6.42 -9.61 5.3 -10.09 4.02 -10.09 C 2.57 -10.09 1.45 -9.61 .65 -8.81 C -.16 -8.01 -.64 -7.05 -.64 -5.77 Z M -1.76 7.05 C -1.76 8.17 -1.44 9.13 -.96 9.93 C -.64 10.9 .16 11.7 1.13 12.18 C 1.93 12.66 2.89 12.82 4.02 12.82 C 5.62 12.82 6.91 12.34 8.03 11.38 C 9.15 10.25 9.63 8.81 9.63 7.21 C 9.63 5.61 9.15 4.33 8.03 3.2 C 6.91 2.08 5.46 1.44 3.86 1.44 C 2.25 1.44 .97 2.08 -.16 3.2 C -1.28 4.17 -1.76 5.61 -1.76 7.05 Z "/>
<path transform="matrix(.75,0,0,.75,195.66751,216.66)" d="M 0 0 L 3.53 0 L 9.31 16.02 L 15.09 0 L 18.62 0 L 11.08 20.35 L 11.08 28.04 L 7.54 28.04 L 7.54 20.35 L 0 0 Z "/>
<path transform="matrix(.75,0,0,.75,0,0)" stroke-width="4.013" stroke-linecap="butt" stroke-linejoin="round" fill="none" stroke="#000000" d="M 336.17 259.72 L 319 259.72 "/>
<path transform="matrix(.75,0,0,.75,211.68,200.4375)" d="M 0 0 L 3.21 -.32 C 3.53 1.28 4.01 2.41 4.81 3.05 C 5.62 3.85 6.58 4.17 7.86 4.17 C 8.99 4.17 9.79 4.01 10.59 3.53 C 11.39 3.05 12.04 2.41 12.68 1.44 C 13.16 .8 13.48 -.32 13.96 -1.76 C 14.28 -3.2 14.44 -4.48 14.44 -5.93 C 14.44 -6.09 14.44 -6.41 14.44 -6.73 C 13.64 -5.61 12.84 -4.64 11.56 -4 C 10.43 -3.36 9.15 -3.04 7.7 -3.04 C 5.46 -3.04 3.37 -3.84 1.76 -5.45 C .16 -7.21 -.64 -9.45 -.64 -12.17 C -.64 -15.06 .32 -17.3 1.92 -19.06 C 3.53 -20.67 5.78 -21.63 8.18 -21.63 C 10.11 -21.63 11.72 -21.15 13.16 -20.19 C 14.77 -19.22 15.89 -17.78 16.69 -16.02 C 17.49 -14.1 17.82 -11.53 17.82 -8.01 C 17.82 -4.48 17.49 -1.6 16.69 .48 C 15.89 2.57 14.77 4.17 13.16 5.29 C 11.72 6.41 9.79 6.89 7.86 6.89 C 5.62 6.89 3.85 6.41 2.41 5.13 C .96 4.01 .16 2.25 0 0 Z M 14.12 -12.33 C 14.12 -14.26 13.48 -15.86 12.52 -16.98 C 11.39 -18.26 10.11 -18.74 8.67 -18.74 C 7.06 -18.74 5.78 -18.1 4.65 -16.82 C 3.53 -15.7 2.89 -13.94 2.89 -12.01 C 2.89 -10.25 3.53 -8.81 4.49 -7.69 C 5.62 -6.57 6.9 -6.09 8.51 -6.09 C 10.11 -6.09 11.39 -6.57 12.52 -7.69 C 13.48 -8.81 14.12 -10.41 14.12 -12.33 Z "/>
<path transform="matrix(.75,0,0,.75,195.66751,190.10251)" d="M 0 0 L 3.53 0 L 9.31 16.02 L 15.09 0 L 18.62 0 L 11.08 20.35 L 11.08 28.04 L 7.54 28.04 L 7.54 20.35 L 0 0 Z "/>
<path transform="matrix(.75,0,0,.75,0,0)" stroke-width="4.013" stroke-linecap="butt" stroke-linejoin="round" fill="none" stroke="#000000" d="M 336.17 224.15 L 319 224.15 "/>
<path transform="matrix(.75,0,0,.75,204.57749,178.6875)" d="M 0 0 L -3.37 0 L -3.37 -21.95 C -4.34 -21.15 -5.3 -20.35 -6.74 -19.55 C -8.03 -18.74 -9.31 -18.1 -10.27 -17.78 L -10.27 -20.99 C -8.35 -21.95 -6.74 -23.07 -5.3 -24.35 C -3.85 -25.63 -2.89 -26.92 -2.25 -28.04 L 0 -28.04 L 0 0 Z "/>
<path transform="matrix(.75,0,0,.75,211.20001,168.35251)" d="M 0 0 C 0 -3.2 .32 -5.93 1.12 -8.01 C 1.76 -10.09 2.73 -11.53 4.01 -12.65 C 5.45 -13.78 7.06 -14.26 9.15 -14.26 C 10.59 -14.26 12.03 -13.94 13.16 -13.46 C 14.28 -12.81 15.25 -11.85 15.89 -10.73 C 16.69 -9.61 17.33 -8.33 17.65 -6.57 C 18.13 -4.96 18.29 -2.72 18.29 0 C 18.29 3.37 17.97 5.93 17.33 8.01 C 16.69 10.1 15.57 11.54 14.28 12.66 C 13 13.78 11.23 14.26 9.15 14.26 C 6.42 14.26 4.33 13.3 2.73 11.38 C .96 9.14 0 5.29 0 0 Z M 3.53 0 C 3.53 4.65 4.01 7.69 5.13 9.14 C 6.26 10.74 7.54 11.54 9.15 11.54 C 10.75 11.54 12.03 10.74 13.16 9.14 C 14.28 7.69 14.76 4.65 14.76 0 C 14.76 -4.64 14.28 -7.69 13.16 -9.13 C 12.03 -10.73 10.75 -11.53 9.15 -11.53 C 7.54 -11.53 6.26 -10.73 5.29 -9.45 C 4.17 -7.69 3.53 -4.64 3.53 0 Z "/>
<path transform="matrix(.75,0,0,.75,179.295,163.42499)" d="M 0 0 L 3.53 0 L 9.31 16.02 L 15.09 0 L 18.62 0 L 11.08 20.35 L 11.08 28.2 L 7.54 28.2 L 7.54 20.35 L 0 0 Z "/>
<path transform="matrix(.75,0,0,.75,0,0)" stroke-width="4.013" stroke-linecap="butt" stroke-linejoin="round" fill="none" stroke="#000000" d="M 336.17 188.74 L 319 188.74 "/>
<path transform="matrix(.75,0,0,.75,206.865,152.13)" d="M 0 0 L -3.37 0 L -3.37 -21.95 C -4.34 -21.15 -5.3 -20.35 -6.74 -19.55 C -8.03 -18.74 -9.31 -18.1 -10.27 -17.78 L -10.27 -21.15 C -8.35 -21.95 -6.74 -23.07 -5.3 -24.35 C -3.85 -25.63 -2.89 -26.92 -2.25 -28.2 L 0 -28.2 L 0 0 Z "/>
<path transform="matrix(.75,0,0,.75,221.07,152.13)" d="M 0 0 L -3.37 0 L -3.37 -21.95 C -4.34 -21.15 -5.46 -20.35 -6.74 -19.54 C -8.03 -18.74 -9.31 -18.1 -10.27 -17.78 L -10.27 -21.15 C -8.35 -21.95 -6.74 -23.07 -5.3 -24.35 C -3.85 -25.63 -2.89 -26.91 -2.25 -28.2 L 0 -28.2 L 0 0 Z "/>
<path transform="matrix(.75,0,0,.75,181.5825,136.86751)" d="M 0 0 L 3.53 0 L 9.31 16.02 L 15.09 0 L 18.62 0 L 11.08 20.35 L 11.08 28.04 L 7.54 28.04 L 7.54 20.35 L 0 0 Z "/>
<path transform="matrix(.75,0,0,.75,0,0)" stroke-width="4.013" stroke-linecap="butt" stroke-linejoin="round" fill="none" stroke="#000000" d="M 336.17 153.33 L 319 153.33 "/>
<path transform="matrix(.75,0,0,.75,204.57749,125.572498)" d="M 0 0 L -3.37 0 L -3.37 -21.95 C -4.34 -21.15 -5.3 -20.35 -6.74 -19.55 C -8.03 -18.75 -9.31 -18.27 -10.27 -17.79 L -10.27 -21.15 C -8.35 -22.11 -6.74 -23.24 -5.3 -24.52 C -3.85 -25.64 -2.89 -26.92 -2.25 -28.2 L 0 -28.2 L 0 0 Z "/>
<path transform="matrix(.75,0,0,.75,224.79752,123.052509)" d="M 0 0 L 0 3.36 L -18.61 3.36 C -18.61 2.4 -18.45 1.76 -18.13 .96 C -17.65 -.32 -16.85 -1.6 -15.89 -2.89 C -14.92 -4.01 -13.32 -5.45 -11.39 -7.05 C -8.34 -9.61 -6.26 -11.54 -5.13 -12.98 C -4.17 -14.42 -3.53 -15.86 -3.53 -17.15 C -3.53 -18.43 -4.01 -19.71 -5.13 -20.67 C -6.1 -21.47 -7.38 -21.95 -8.82 -21.95 C -10.59 -21.95 -11.87 -21.47 -12.84 -20.51 C -13.8 -19.55 -14.44 -18.11 -14.44 -16.34 L -17.97 -16.82 C -17.65 -19.39 -16.69 -21.31 -15.24 -22.75 C -13.64 -24.2 -11.39 -24.84 -8.82 -24.84 C -6.1 -24.84 -4.01 -24.03 -2.4 -22.59 C -.8 -21.15 0 -19.23 0 -17.15 C 0 -15.86 -.32 -14.9 -.8 -13.78 C -1.28 -12.66 -1.92 -11.54 -3.05 -10.26 C -4.01 -9.13 -5.77 -7.53 -8.34 -5.45 C -10.43 -3.69 -11.71 -2.56 -12.35 -1.92 C -12.84 -1.28 -13.32 -.64 -13.8 0 L 0 0 Z "/>
<path transform="matrix(.75,0,0,.75,179.295,110.3175)" d="M 0 0 L 3.53 0 L 9.31 16.02 L 15.09 0 L 18.62 0 L 11.08 20.35 L 11.08 28.04 L 7.54 28.04 L 7.54 20.35 L 0 0 Z "/>
<path transform="matrix(.75,0,0,.75,0,0)" stroke-width="4.013" stroke-linecap="square" stroke-miterlimit="10" stroke-linejoin="miter" fill="none" stroke="#000000" d="M 336.17 951.57 L 336.17 99.82 "/>
<clipPath id="cp45">
<path transform="matrix(.75,0,0,.75,0,0)" d="M 303.68 919.04 L 634.4 919.04 L 634.4 984.16 L 303.68 984.16 Z " fill-rule="evenodd"/>
</clipPath>
<g clip-path="url(#cp45)">
<path transform="matrix(.75,0,0,.75,0,0)" stroke-width="4.013" stroke-linecap="square" stroke-miterlimit="10" stroke-linejoin="miter" fill="none" stroke="#000000" d="M 336.17 951.57 L 1189.44 951.57 "/>
</g>
</g>
</svg>
